<svg width="32" height="28" viewBox="0 0 32 28" fill="none" xmlns="http://www.w3.org/2000/svg">
<path d="M4.71777 6.36462C4.51987 6.4352 4.36869 6.49287 4.21484 6.54143C4.15445 6.5604 4.08341 6.54788 4.02491 6.57065C3.94143 6.60745 3.8607 6.65019 3.78333 6.69851C3.76395 6.70952 3.7499 6.73645 3.73091 6.74063C3.38903 6.79792 3.04982 6.88822 2.70757 6.89619C2.45686 6.90226 2.35848 6.64274 2.25402 6.44658C2.10702 6.17036 1.96761 5.89035 1.83238 5.60844C1.76476 5.46768 1.7264 5.31212 1.65157 5.17591C1.57673 5.0397 1.44568 4.9456 1.42859 4.75855C1.41719 4.6341 1.26297 4.52862 1.20068 4.40114C1.1247 4.24937 1.08254 4.07939 1.01872 3.92003C0.966304 3.78951 0.918442 3.65444 0.84285 3.53682C0.68293 3.28944 0.709521 3.03826 0.965545 2.88953C1.1794 2.76546 1.42137 2.69072 1.64663 2.586C1.80123 2.51315 1.94558 2.41981 2.09904 2.34469C2.27377 2.25894 2.45345 2.18381 2.63084 2.103C2.86217 1.99714 3.09237 1.89015 3.3237 1.78429C3.50983 1.69968 3.70356 1.62911 3.88057 1.52818C4.0705 1.41891 4.32272 1.44129 4.47049 1.22009C4.52975 1.13093 4.69194 1.09678 4.81426 1.06605C5.07826 0.998892 5.34986 0.960191 5.61196 0.891137C5.89723 0.815253 6.17605 0.715466 6.46056 0.637306C6.5597 0.609608 6.66986 0.624026 6.77204 0.603158C6.88248 0.579443 6.99064 0.546182 7.0953 0.503751C7.17469 0.472259 7.57354 0.597467 7.60507 0.687009C7.67116 0.874442 7.71067 1.07212 7.78512 1.25614C7.84963 1.39944 7.92747 1.53637 8.01759 1.66515C8.14485 1.86245 8.26032 2.07265 8.41834 2.243C8.55243 2.38718 8.73856 2.48318 8.90304 2.59852C8.97288 2.64996 9.04555 2.69746 9.1207 2.7408C9.46751 2.93279 9.80748 3.13881 10.2337 3.10163C10.3241 3.09366 10.4236 3.20597 10.5152 3.19762C10.8141 3.1703 11.1404 3.17637 11.4002 3.05268C11.7869 2.86829 12.1918 2.69034 12.5288 2.42323C12.729 2.26463 12.8676 2.02029 13.0089 1.79833C13.1636 1.55034 13.2759 1.27838 13.3413 0.99358C13.3941 0.777312 13.6095 0.584946 13.848 0.48478C13.886 0.468086 13.9441 0.482123 13.9908 0.492368C14.1637 0.530309 14.3646 0.53031 14.5018 0.621371C14.7813 0.809183 15.124 0.678283 15.4089 0.866475C15.5916 0.98675 15.8518 1.00193 16.0816 1.03607C16.3315 1.07402 16.5465 1.1351 16.7273 1.33961C16.8139 1.43902 16.9932 1.45685 17.1296 1.51528C17.4669 1.66022 17.802 1.81085 18.1408 1.95199C18.2927 2.01573 18.4591 2.04836 18.6061 2.12083C18.7638 2.19861 18.9016 2.31509 19.0574 2.39819C19.1983 2.47407 19.3518 2.52643 19.4992 2.58979C19.7271 2.68844 19.9694 2.76508 20.1799 2.89333C20.4268 3.04509 20.4366 3.28451 20.2817 3.55276C20.197 3.69959 20.1632 3.87488 20.0917 4.02968C20.0249 4.17386 19.9326 4.3059 19.8596 4.44704C19.7708 4.61892 19.6967 4.79839 19.6044 4.96799C19.4767 5.20209 19.3343 5.42822 19.2067 5.66232C19.1463 5.78038 19.0927 5.90173 19.046 6.0258C18.9864 6.17036 18.9522 6.32934 18.8697 6.45948C18.7679 6.61997 18.6525 6.83283 18.4975 6.88329C18.2999 6.94741 18.0557 6.87912 17.8335 6.85294C17.7358 6.83534 17.6411 6.80378 17.5524 6.75922C17.4761 6.72199 17.4024 6.67978 17.3317 6.63287C17.3127 6.62111 17.3017 6.59038 17.2831 6.5862C17.0054 6.52626 16.7266 6.46934 16.4117 6.40446V6.71369C16.4117 10.1214 16.4131 13.5292 16.4159 16.9371C16.4159 17.219 16.3729 17.46 16.0907 17.5798C15.9749 17.628 15.8507 17.6528 15.7253 17.6531C12.9361 17.6566 10.1469 17.6566 7.35778 17.6531C6.71202 17.6531 6.06437 17.6493 5.41747 17.6588C5.15955 17.6626 4.94303 17.6034 4.8097 17.3696C4.76172 17.2938 4.73267 17.2075 4.72499 17.1181C4.71587 16.7387 4.72157 16.3593 4.72157 15.9798C4.72157 12.8873 4.72157 9.79457 4.72157 6.70155L4.71777 6.36462Z" fill="#141A32"/>
<path d="M12.3856 0.782257C12.226 1.19962 12.0627 1.58776 11.7212 1.7824C11.2415 2.05596 10.6956 2.22367 10.1296 2.08594C9.8584 2.01916 9.5735 1.90571 9.35926 1.73346C9.0041 1.44776 8.7249 0.921504 8.77656 0.792122C9.9545 1.11121 11.1332 1.11956 12.3856 0.782257Z" fill="#141A32"/>
<path d="M22.7093 27.7616C22.1471 27.8431 21.6693 27.5741 21.2454 27.3021C20.8575 27.0532 20.5779 26.6491 20.3914 26.1858C20.1901 25.6861 19.9413 25.2126 19.5436 24.8036C19.1113 24.3593 18.5977 24.0706 18.0906 23.7519C18.0409 23.7207 18.0116 23.5477 18.0477 23.5071C18.3771 23.1372 18.6103 22.7145 18.7831 22.2551C19.057 21.5254 19.0741 20.7643 18.9708 20.0112C18.9176 19.6253 18.7869 19.2144 18.5696 18.8953C18.3102 18.5159 18.1457 18.0564 17.7286 17.7794C17.4141 17.5708 17.4411 17.5138 17.6568 17.1652C17.955 16.6852 18.2441 16.2075 18.4606 15.6714C18.646 15.2123 18.7334 14.7494 18.8545 14.2835C18.8967 14.1211 19.0559 13.986 19.1751 13.8502C19.1983 13.8232 19.2948 13.8308 19.3381 13.8559C19.604 14.0103 19.8585 14.1894 20.1316 14.3317C20.5426 14.5457 20.9722 14.724 21.3821 14.9387C21.7745 15.1451 22.1521 15.3804 22.5369 15.6023C22.8468 15.781 23.1743 15.9358 23.4637 16.1438C23.7296 16.3335 23.7296 16.6029 23.5363 16.8597C23.2966 17.1781 23.1351 17.5359 23.014 17.9145C22.9232 18.1987 22.791 18.4726 22.7302 18.7625C22.6542 19.1249 22.6387 19.4997 22.5847 19.8674C22.5619 20.0214 22.4943 20.1709 22.4708 20.3227C22.4514 20.4545 22.4514 20.5885 22.4708 20.7203C22.5 20.9229 22.5847 21.1206 22.5916 21.3224C22.6182 21.9454 22.867 22.5066 23.1545 23.0238C23.3824 23.4373 23.7543 23.7959 24.1266 24.0994C24.4464 24.3604 24.8555 24.5005 25.2764 24.5927C25.6293 24.6712 25.9681 24.8203 26.3051 24.9603C26.5991 25.081 26.6887 25.3777 26.7054 25.6383C26.7298 25.9672 26.6881 26.2975 26.5827 26.61C26.4843 26.8813 26.1873 27.0001 25.9058 27.0759C25.488 27.1898 25.0701 27.3146 24.6485 27.4132C24.0077 27.565 23.3627 27.6944 22.7196 27.8333L22.7093 27.7616Z" fill="#141A32"/>
<path d="M27.344 23.9609C27.0648 23.8869 26.6101 23.8349 26.2268 23.6418C25.9313 23.4931 25.6726 23.1994 25.4911 22.9114C25.1811 22.4182 24.9763 21.862 24.6656 21.371C24.4803 21.0785 24.1824 20.855 23.9241 20.6122C23.8326 20.526 23.6275 20.4877 23.6142 20.4054C23.5822 20.1668 23.5854 19.9248 23.6237 19.6871C23.6704 19.351 23.7262 19.0114 23.8273 18.6885C23.9466 18.3061 24.0829 17.9206 24.2759 17.5715C24.538 17.0965 24.7948 16.6264 24.6747 16.0698C24.6311 15.8656 24.5057 15.63 24.3424 15.5101C23.939 15.2138 23.4983 14.9653 23.0611 14.7187C22.761 14.5494 22.4412 14.4151 22.1301 14.266C21.9918 14.1992 21.9926 14.0076 22.1001 13.8536C22.3124 13.55 22.5179 13.2385 22.7078 12.9191C22.9095 12.5776 23.1192 12.2361 23.2712 11.873C23.4444 11.4587 23.5545 11.0182 23.6977 10.591C23.7494 10.4362 23.7977 10.1736 23.8824 10.1588C24.0662 10.1266 24.2892 10.188 24.4662 10.2726C24.7678 10.4176 25.0405 10.6202 25.3353 10.7807C25.9651 11.124 26.6018 11.4549 27.2346 11.7933C27.5461 11.9599 27.8424 12.1667 28.1694 12.2866C28.3768 12.3625 28.4418 12.4945 28.4095 12.6474C28.3597 12.88 28.2458 13.0985 28.1569 13.3224C28.1086 13.4427 28.0452 13.558 28.0049 13.6809C27.8564 14.1495 27.7421 14.6314 27.5639 15.0882C27.3189 15.7173 27.2828 16.3646 27.3121 17.0232C27.3261 17.3385 27.3394 17.6652 27.4295 17.9638C27.6574 18.72 27.9822 19.4436 28.5311 20.0222C28.7631 20.2673 29.1183 20.3913 29.3891 20.6061C29.7781 20.9142 30.2628 20.8455 30.6947 20.9737C31.3986 21.1828 31.7583 21.9265 31.5042 22.6345C31.3165 23.1558 30.9044 23.2632 30.46 23.3762C30.1462 23.4563 29.8362 23.553 29.5221 23.6335C29.3204 23.6878 29.1159 23.7308 28.9094 23.7625C28.4444 23.8296 27.9784 23.882 27.344 23.9609Z" fill="#141A32"/>
<path d="M16.7232 18.2677C17.179 18.7018 17.5669 19.1123 17.7686 19.7198C17.9084 20.1409 17.9965 20.5545 17.9965 20.9764C17.9988 21.5664 17.7203 22.0919 17.4852 22.6185C17.4237 22.757 17.2953 22.8784 17.1688 22.9699C17.1057 23.0158 16.9587 23.012 16.8865 22.9699C16.58 22.7858 16.2564 22.6113 15.9988 22.3696C15.7819 22.1663 15.6262 21.8866 15.4833 21.6191C15.3215 21.3156 15.2053 20.9984 15.2262 20.6296C15.2589 20.0605 15.4416 19.5589 15.8161 19.1408C16.0888 18.8361 16.4041 18.5716 16.7232 18.2677Z" fill="#141A32"/>
</svg>
