<svg width="28" height="33" viewBox="0 0 28 33" fill="none" xmlns="http://www.w3.org/2000/svg">
<path d="M24.1653 16C24.0757 16.1232 24.0685 16.208 24.1869 16.3307C24.4983 16.654 24.6187 17.0608 24.5004 17.502C24.4135 17.8173 24.2956 18.1225 24.1484 18.4129C23.9219 18.8673 23.5344 19.0844 23.043 19.0818C22.9162 19.0818 22.9019 19.1526 22.8604 19.2347C22.819 19.3168 22.8575 19.3658 22.9141 19.4186C23.0923 19.5928 23.2164 19.8177 23.2706 20.0649C23.3249 20.3121 23.3068 20.5704 23.2188 20.807C23.1771 20.929 23.1292 21.0486 23.0751 21.1653C23.0265 21.2662 23.04 21.3186 23.1368 21.3837C24.2993 22.1915 25.1165 23.2789 25.5606 24.6534C25.9781 25.9448 26.0022 27.2489 25.5957 28.5464C24.9766 30.5242 23.7127 31.8882 21.8294 32.599C20.1523 33.232 18.4891 33.118 16.9151 32.2399C14.9054 31.1179 13.8169 29.3372 13.6664 26.992C13.5477 25.1379 14.171 23.5288 15.4344 22.2011C16.37 21.2186 17.5121 20.6353 18.8263 20.4134C19.4001 20.3144 19.9852 20.308 20.5609 20.3946C20.6661 20.4108 20.7113 20.3815 20.7477 20.2819C20.8117 20.0947 20.8881 19.9122 20.9763 19.7358C21.2133 19.2867 21.5919 19.0691 22.0834 19.0661C22.1679 19.0661 22.216 19.0521 22.2431 18.9651C22.2701 18.8782 22.3082 18.8223 22.222 18.7353C21.8256 18.336 21.7293 17.8144 21.9384 17.2853C22.0162 17.0887 22.0889 16.8895 22.1763 16.6977C22.4079 16.1927 22.8021 15.9401 23.3396 15.9436C23.4736 15.9436 23.4727 15.8532 23.5086 15.7768C23.5534 15.6859 23.477 15.6658 23.4288 15.633C22.0343 14.6719 21.6684 12.7675 22.6065 11.3402C23.2876 10.3035 24.5925 9.79232 25.7516 10.1073C27.0057 10.4476 27.8847 11.508 27.989 12.8073C28.0298 13.2958 27.9564 13.7873 27.775 14.2403C27.5936 14.6933 27.3095 15.0946 26.9466 15.4103C26.5838 15.726 26.1528 15.9469 25.6901 16.0543C25.2273 16.1618 24.7464 16.1526 24.2878 16.0275C24.2477 16.0157 24.2046 16.007 24.1653 16ZM24.7903 28.8007C25.9312 25.8788 24.5967 22.6022 21.7867 21.4361C19.0401 20.2959 15.8823 21.6441 14.744 24.5074C14.4693 25.1932 14.3288 25.9283 14.3306 26.6705C14.3323 27.4127 14.4762 28.1471 14.7541 28.8314C15.0319 29.5158 15.438 30.1364 15.9492 30.6576C16.4603 31.1787 17.0662 31.59 17.7319 31.8676C20.4916 33.0201 23.6861 31.6317 24.7903 28.8029V28.8007ZM27.1486 13.9842C27.632 12.8291 27.1012 11.4219 25.9958 10.9291C24.8067 10.3987 23.466 10.9252 22.9678 12.1183C22.4696 13.3114 22.9838 14.7094 24.1163 15.2202C24.3933 15.3482 24.6922 15.4178 24.9956 15.4249C25.299 15.432 25.6007 15.3765 25.883 15.2617C26.1654 15.1468 26.4227 14.9748 26.64 14.7558C26.8573 14.5369 27.0302 14.2753 27.1486 13.9864V13.9842ZM23.785 16.9389C23.6481 17.2228 23.5019 17.3141 23.3134 17.2495C23.1127 17.1805 23.0599 17.0193 23.1305 16.6754C23.0625 16.6905 22.9989 16.7218 22.9447 16.7669C22.8906 16.8119 22.8474 16.8695 22.8186 16.9349C22.7138 17.1679 22.6187 17.4066 22.5334 17.651C22.5105 17.7191 22.5024 17.7916 22.5097 17.8634C22.517 17.9351 22.5395 18.0043 22.5756 18.066C22.7869 17.7336 22.9086 17.6505 23.0865 17.7305C23.1537 17.7664 23.2107 17.8199 23.2517 17.8856C23.3561 18.0368 23.2775 18.1914 23.2222 18.3548C23.3751 18.3067 23.4854 18.2272 23.5424 18.0984C23.6498 17.8554 23.7487 17.6082 23.8382 17.3557C23.8856 17.2233 23.8628 17.0861 23.785 16.941V16.9389ZM22.4117 20.9302C22.593 20.5663 22.7011 20.2828 22.5258 20.0818C22.4979 20.1526 22.4721 20.2207 22.4438 20.2876C22.3593 20.4824 22.1687 20.5685 21.9929 20.4916C21.8171 20.4147 21.747 20.2199 21.8163 20.0281C21.8417 19.9569 21.8712 19.8878 21.9126 19.7839C21.5323 19.9267 21.5045 20.2705 21.3701 20.534L22.4117 20.9302Z" fill="#141A32"/>
<path d="M18.0817 30.8908C17.5409 30.662 17.0492 30.3247 16.6351 29.8984C16.2211 29.472 15.8929 28.965 15.6695 28.4067C15.4461 27.8484 15.332 27.2498 15.3337 26.6456C15.3354 26.0414 15.453 25.4436 15.6795 24.8867C16.6062 22.5712 19.2024 21.4624 21.4436 22.4222C21.9842 22.6518 22.4754 22.9896 22.8891 23.4164C23.3028 23.8431 23.6308 24.3502 23.8541 24.9085C24.0775 25.4669 24.1917 26.0653 24.1904 26.6695C24.189 27.2737 24.0721 27.8717 23.8463 28.4289C22.9175 30.7444 20.3306 31.8493 18.0817 30.8908ZM18.3209 30.2311C20.2059 31.0533 22.4197 30.1205 23.2188 28.1672C24.0263 26.1929 23.1292 23.9294 21.2044 23.0815C19.3253 22.2549 17.1115 23.188 16.3087 25.1449C15.4999 27.1165 16.4008 29.3935 18.3209 30.2311Z" fill="#141A32"/>
<path d="M16.5246 8.92947C17.3416 11.383 18.1592 13.8366 18.9776 16.2901C19.2277 17.042 18.9159 17.6995 18.1848 17.9612C17.0862 18.3541 15.9885 18.7458 14.8918 19.1364C13.574 19.6062 12.2558 20.076 10.9371 20.5458C10.6795 20.6456 10.3971 20.6542 10.1343 20.5702C9.69143 20.4256 9.45818 20.0866 9.31493 19.6497C8.50475 17.2061 7.69146 14.7635 6.87508 12.3219C6.85564 12.2633 6.84254 12.203 6.82564 12.1401L16.4515 8.70928L16.5246 8.92947ZM15.4023 9.84693C15.4264 9.91858 15.4479 9.98367 15.4695 10.0483C16.2067 12.2555 16.9444 14.4629 17.6824 16.6706C17.7695 16.9293 17.7919 17.1639 17.5831 17.3766L17.6127 17.4203C17.8075 17.3329 18.0238 17.2735 18.192 17.1464C18.3902 16.997 18.4033 16.7619 18.3188 16.5212C17.9715 15.4875 17.6264 14.4536 17.2835 13.4193C16.8852 12.2231 16.4864 11.0271 16.0873 9.8312C16.0657 9.76654 16.045 9.70014 16.0192 9.62718L15.4023 9.84693Z" fill="#141A32"/>
<path d="M4.15212 12.3809C3.45828 12.6255 2.80247 12.2992 2.5633 11.5849C1.73086 9.0984 0.901241 6.61136 0.0744362 4.12375C-0.161774 3.41337 0.180921 2.69383 0.865464 2.44873C1.62917 2.17525 2.39315 1.90336 3.15742 1.63307C3.21404 1.61298 3.27235 1.59856 3.33362 1.58065L6.63887 11.4922C5.79587 11.7932 4.97357 12.0886 4.15212 12.3809ZM2.9491 2.48106C2.89036 2.4981 2.83163 2.51208 2.775 2.53262C2.22061 2.72863 1.66649 2.92567 1.11266 3.12372C0.797433 3.23731 0.663905 3.50818 0.761516 3.8354C0.807834 3.99372 0.864878 4.14847 0.932228 4.2985C0.978287 3.90531 1.27028 3.82405 1.55254 3.72618C2.03933 3.5558 2.52105 3.38105 3.00487 3.20629C3.05727 3.18751 3.10756 3.1626 3.16714 3.13814L2.9491 2.48106Z" fill="#141A32"/>
<path d="M8.59658 10.8317L7.6078 7.86697L13.3263 5.8276L14.3151 8.79273L8.59658 10.8317ZM10.7335 9.06403C10.7737 9.18176 10.857 9.27849 10.9654 9.33345C11.0739 9.38841 11.1988 9.39722 11.3135 9.35799C11.4281 9.31876 11.5234 9.23462 11.5787 9.12363C11.634 9.01264 11.645 8.88364 11.6094 8.76433C11.5215 8.48429 11.2984 8.36546 11.0347 8.45851C10.9764 8.47771 10.9224 8.50863 10.8756 8.54948C10.8289 8.59033 10.7905 8.64032 10.7625 8.69658C10.7345 8.75284 10.7175 8.81426 10.7125 8.87732C10.7075 8.94037 10.7147 9.00382 10.7335 9.06403ZM11.1666 7.44014C11.129 7.32186 11.0475 7.22386 10.9401 7.16766C10.8326 7.11146 10.708 7.10167 10.5936 7.14043C10.5345 7.16129 10.4799 7.19399 10.4331 7.23667C10.3862 7.27935 10.3479 7.33117 10.3205 7.38916C10.293 7.44714 10.2768 7.51017 10.2729 7.57462C10.2691 7.63906 10.2775 7.70367 10.2978 7.76474C10.3164 7.82348 10.3464 7.87767 10.386 7.92396C10.4256 7.97025 10.4739 8.00767 10.528 8.03391C10.5822 8.06014 10.6409 8.07464 10.7007 8.07652C10.7604 8.07839 10.8199 8.06759 10.8754 8.04478C11.1336 7.95173 11.2549 7.69833 11.1666 7.44014ZM9.28239 9.08238C9.224 9.1014 9.16987 9.13231 9.12322 9.17331C9.07657 9.2143 9.03833 9.26454 9.01076 9.32106C8.98319 9.37758 8.96685 9.43923 8.9627 9.50239C8.95855 9.56555 8.96668 9.62892 8.9866 9.68878C9.00371 9.74811 9.03228 9.80325 9.07058 9.85084C9.10888 9.89844 9.15613 9.9375 9.20945 9.96568C9.26278 9.99386 9.32107 10.0106 9.38082 10.0148C9.44057 10.019 9.50052 10.0106 9.55706 9.99023C9.6171 9.97153 9.67278 9.94027 9.72065 9.89838C9.76851 9.85649 9.80752 9.80486 9.83526 9.74672C9.86301 9.68858 9.87888 9.62515 9.88191 9.56039C9.88493 9.49564 9.87504 9.43093 9.85285 9.37029C9.76369 9.10423 9.53508 8.99064 9.28239 9.08238ZM9.41761 8.06969C9.39902 8.009 9.36871 7.95286 9.32851 7.90465C9.28831 7.85644 9.23906 7.81717 9.18375 7.78923C9.12843 7.76129 9.0682 7.74525 9.00671 7.74209C8.94522 7.73893 8.88375 7.74872 8.82603 7.77086C8.71303 7.81494 8.62088 7.90246 8.56883 8.01514C8.51678 8.12782 8.50886 8.25693 8.54672 8.3755C8.63503 8.64331 8.87589 8.76215 9.13492 8.66603C9.19192 8.64692 9.24462 8.61616 9.28989 8.57557C9.33516 8.53498 9.37208 8.4854 9.39845 8.42977C9.42482 8.37414 9.44011 8.3136 9.4434 8.25174C9.44669 8.18988 9.43792 8.12797 9.41761 8.06969ZM12.4469 8.4537C12.4662 8.51437 12.497 8.57043 12.5376 8.61857C12.5782 8.6667 12.6277 8.70593 12.6832 8.73394C12.7387 8.76195 12.799 8.77817 12.8607 8.78164C12.9224 8.78511 12.9841 8.77575 13.0422 8.75413C13.1003 8.7325 13.1536 8.69905 13.199 8.65575C13.2444 8.61245 13.2809 8.56017 13.3064 8.50202C13.3319 8.44387 13.3459 8.38102 13.3475 8.31719C13.3491 8.25336 13.3383 8.18985 13.3157 8.13041C13.227 7.87265 12.9941 7.75906 12.7415 7.85037C12.4888 7.94168 12.3611 8.20031 12.4469 8.4537ZM12.8809 6.83243C12.8608 6.77261 12.8295 6.71748 12.7888 6.6702C12.7481 6.62293 12.6987 6.58444 12.6435 6.55696C12.5883 6.52947 12.5285 6.51353 12.4673 6.51005C12.4062 6.50656 12.345 6.51561 12.2872 6.53666C12.0569 6.62753 11.9285 6.89753 12.0075 7.12339C12.0949 7.37373 12.3692 7.51659 12.5991 7.42921C12.6556 7.4093 12.7077 7.37805 12.7525 7.33723C12.7972 7.29642 12.8338 7.24686 12.86 7.1914C12.8862 7.13595 12.9015 7.07568 12.9051 7.01408C12.9087 6.95247 12.9005 6.89074 12.8809 6.83243Z" fill="#141A32"/>
<path d="M8.80786 0C8.35615 0.592415 8.18881 1.24556 8.36291 1.97428C8.46094 2.38495 8.59363 2.78732 8.68997 3.19755C8.72631 3.35396 8.7056 3.52434 8.68532 3.69604C8.3984 3.17615 7.9788 2.94504 7.38004 2.96251C7.67245 3.37318 7.65597 3.82317 7.69442 4.26792C7.72104 4.57374 7.7671 4.89922 7.89936 5.16572C8.17783 5.72799 8.68574 5.96958 9.27817 6.04211C9.38634 6.05565 9.41465 5.99623 9.44466 5.91322C9.74045 5.0945 9.82961 4.26006 9.6234 3.40333C9.61452 3.36575 9.60734 3.32731 9.58833 3.23513C10.3984 3.73012 10.9642 4.39898 11.4446 5.18669C11.7091 4.91587 11.8592 4.54789 11.8621 4.16307C11.8697 3.62308 11.6365 3.17178 11.2895 2.80654C10.9426 2.44131 10.5349 2.11408 10.1377 1.79254C9.75735 1.48322 9.36141 1.18876 9.12351 0.737898C9.00351 0.507223 8.91688 0.257762 8.80786 0Z" fill="#141A32"/>
<path d="M14.1215 5.98138L14.8302 8.10638C15.183 7.97182 15.4057 7.72455 15.5012 7.36368C15.6279 6.89053 15.4893 6.48991 15.1302 6.1806C14.8428 5.93157 14.5077 5.86779 14.1215 5.98138Z" fill="#141A32"/>
</svg>
