<svg width="26" height="28" viewBox="0 0 26 28" fill="none" xmlns="http://www.w3.org/2000/svg">
<path d="M18.8769 0.00117956C20.5289 0.767139 22.1809 1.5331 23.8329 2.29906C24.3375 2.53498 24.4017 2.67732 24.2798 3.20343C23.6745 5.85755 23.3759 8.54391 23.5201 11.259C23.6266 13.2698 24.303 15.0848 25.7845 16.5672C25.9165 16.6993 25.9876 16.9412 25.9901 17.133C26.0039 19.429 25.9994 21.7253 25.999 24.022C25.999 25.1151 25.999 26.2084 25.999 27.3021C25.999 27.8081 25.8081 27.9969 25.2856 27.9972C17.0951 27.9988 8.90465 27.9997 0.714159 28C0.203117 28 0.00568748 27.8109 0.00528124 27.3316C0.00528124 23.96 0.0035207 20.5884 0 17.2168C0 16.9144 0.0897771 16.6844 0.310362 16.463C1.48844 15.2811 2.09779 13.8325 2.37972 12.2365C2.59827 10.9959 2.53246 9.74711 2.46625 8.50105C2.37513 6.66303 2.11684 4.83635 1.6944 3.04221C1.61316 2.70406 1.71431 2.5165 2.05067 2.3604C3.71163 1.58972 5.37407 0.821663 7.03801 0.0562278C7.06906 0.0394274 7.09891 0.0206433 7.12738 0H7.41174C7.71236 0.136835 7.81026 0.409324 7.91466 0.68496C8.77182 2.9506 9.70209 5.18792 10.9565 7.27819C11.3628 7.95686 11.8681 8.59306 12.404 9.18405C12.8585 9.68538 13.1486 9.66493 13.591 9.15731C14.0675 8.60997 14.5306 8.03865 14.9047 7.42368C16.2254 5.25398 17.2121 2.93133 18.1323 0.581941C18.2281 0.336189 18.3354 0.113636 18.599 0L18.8769 0.00117956ZM24.8859 20.8299C24.9001 20.7973 24.9135 20.7812 24.9135 20.7651C24.9168 19.6169 24.9212 18.4688 24.9164 17.3206C24.9164 17.242 24.8611 17.1496 24.8039 17.0878C23.4487 15.6385 22.7321 13.9127 22.5001 11.9951C22.2519 9.94372 22.4465 7.89906 22.7012 5.86305C22.8137 4.96144 22.9945 4.06769 23.148 3.14405L22.6053 2.89398L18.0433 20.8299H24.8859ZM3.39937 2.90184C3.32814 2.93862 3.2546 2.97106 3.17919 2.99896C2.90092 3.0776 2.82252 3.21562 2.88954 3.51366C3.30593 5.36172 3.50824 7.23297 3.58014 9.12074C3.62564 10.2882 3.63458 11.4524 3.41237 12.6069C3.08494 14.3075 2.3915 15.8363 1.1732 17.124C1.10861 17.1924 1.08668 17.3206 1.08627 17.4201C1.08058 18.4589 1.08383 19.4978 1.08424 20.5366V20.8311H7.96016C6.43759 14.8462 4.92153 8.88718 3.39937 2.90184ZM19.0296 1.27083C18.9923 1.35576 18.9524 1.44502 18.9139 1.53507C18.4471 2.61755 18.0011 3.70909 17.5095 4.78056C16.8262 6.27041 16.0877 7.7347 15.0977 9.06373C14.7321 9.55248 14.3437 10.0259 13.7977 10.3353C13.617 10.4376 13.5613 10.543 13.5617 10.7396C13.5682 13.6639 13.5697 16.5885 13.5662 19.5131V20.8323H14.3417C14.3653 20.7596 14.388 20.6998 14.4034 20.6381C15.4133 16.6643 16.4228 12.6905 17.4319 8.71653C18.0356 6.34158 18.6411 3.96677 19.2486 1.59208C19.2957 1.40216 19.2693 1.29324 19.0292 1.27083H19.0296ZM12.4381 20.8417V20.4879C12.4381 17.2531 12.4402 14.0183 12.4446 10.7836C12.4446 10.565 12.3857 10.4411 12.1773 10.3432C11.9953 10.2575 11.834 10.1199 11.6829 9.98461C10.9045 9.28903 10.3586 8.42595 9.85118 7.54085C8.82341 5.74706 7.99388 3.86479 7.24316 1.94911C7.15419 1.72223 7.06157 1.49653 6.97301 1.27555C6.72521 1.3074 6.71221 1.42379 6.75933 1.60781C7.38629 4.05327 8.00918 6.49926 8.62801 8.94577C9.52497 12.478 10.4226 16.0103 11.3209 19.5426C11.4318 19.9802 11.5517 20.4155 11.6646 20.8402L12.4381 20.8417ZM1.09683 26.9387H12.4178V25.5146H1.09683V26.9387ZM24.9062 25.5114H13.5877V26.9387H24.9062V25.5114Z" fill="#141A32"/>
</svg>
