<svg width="26" height="27" viewBox="0 0 26 27" fill="none" xmlns="http://www.w3.org/2000/svg">
<path fill-rule="evenodd" clip-rule="evenodd" d="M23.6073 16.8484H14.3921V15.3574H23.6073V16.8484ZM23.5959 20.0777H14.4151C14.4151 19.6043 14.4151 19.1175 14.4151 18.5523H23.5959V20.0777ZM25.2669 13.1911C25.2669 12.9621 25.0928 12.7192 24.9613 12.5067C24.4896 11.7387 23.8894 11.0292 23.5353 10.2114C22.4627 7.71595 22.1861 5.07059 22.3673 2.37988C22.4095 1.75058 22.304 1.41738 21.6368 1.24197C20.558 0.951995 19.4957 0.604551 18.4543 0.201145C17.8692 -0.023737 17.6372 0.110068 17.3953 0.679394C15.9512 4.08823 14.4547 7.47495 13.0019 10.8808C12.8201 11.3211 12.7236 11.7916 12.7175 12.2676C12.6911 14.8338 12.7024 17.4024 12.7043 19.9679C12.7077 21.4641 12.6832 22.9629 12.731 24.458C12.7687 25.5671 13.5346 26.3939 14.5771 26.4025C18.1062 26.434 21.6334 26.4152 25.1832 26.4152C25.2333 26.2807 25.268 26.2331 25.268 26.1851C25.2738 21.8536 25.2734 17.5223 25.2669 13.1911Z" fill="#141A32"/>
<path fill-rule="evenodd" clip-rule="evenodd" d="M9.44569 20.0841H2.44215V18.5897H9.44569V20.0841ZM2.438 15.3616H9.44343V16.8608H2.43913V15.3616H2.438ZM8.49325 0.444392C8.4179 0.274232 8.02908 0.0879548 7.85615 0.141177C6.4565 0.566203 5.07342 1.0467 3.81882 1.46611C3.68695 3.36898 3.65229 5.13168 3.42059 6.86927C3.15686 8.86472 2.54914 10.762 1.2207 12.3635C0.962996 12.6746 0.754272 13.1375 0.748621 13.5336C0.714336 17.544 0.727522 21.557 0.730913 25.5689C0.730913 25.8283 0.752012 26.0884 0.764068 26.3748H11.406C11.3137 25.2046 11.1618 24.0825 11.1505 22.9603C11.1166 19.6969 11.1716 16.4331 11.1196 13.172C11.0985 11.8601 11.2507 10.6368 11.8856 9.47227C12.0287 9.20766 12.0886 8.77926 11.9775 8.51428C10.848 5.80895 9.68694 3.11786 8.49438 0.441019L8.49325 0.444392Z" fill="#141A32"/>
<path fill-rule="evenodd" clip-rule="evenodd" d="M15.6961 0.696259H10.3281C11.1946 2.69771 12.0755 4.72577 13.0166 6.88876C13.9656 4.69691 14.8503 2.65086 15.6961 0.696259Z" fill="#141A32"/>
</svg>
