<svg width="38" height="22" viewBox="0 0 38 22" fill="none" xmlns="http://www.w3.org/2000/svg">
<path d="M13.1494 6.60065C12.8496 5.93129 12.5467 5.2551 12.2356 4.57086C12.016 9.22467 11.8006 13.8397 11.5856 18.4527C11.7041 18.4864 11.8181 18.5187 11.9282 18.55C12.399 18.6836 12.8009 18.7977 13.2011 18.9137C13.6571 19.0452 14.1133 19.1758 14.5697 19.3064C15.75 19.6441 16.9304 19.9819 18.1046 20.3356C18.8739 20.5668 19.5907 20.7604 20.3655 20.2674C20.7533 20.0211 21.4788 19.7516 21.7101 19.9344C22.1253 20.2604 22.4542 20.6951 22.7841 21.131C22.9484 21.3481 23.1129 21.5656 23.2885 21.7701C23.3601 21.8541 23.4807 21.8959 23.6014 21.9377C23.6573 21.957 23.7133 21.9764 23.7644 22C23.8412 21.8118 23.9184 21.6236 23.9957 21.4354C24.0729 21.2472 24.1501 21.059 24.2269 20.8708C24.1347 20.9078 24.0437 20.9444 23.951 20.9802C23.8684 20.9257 23.7845 20.8727 23.7005 20.8197C23.4959 20.6905 23.291 20.5611 23.104 20.4089C22.9378 20.2725 22.7629 20.0821 22.7099 19.8834C22.6594 19.7011 22.7078 19.3394 22.8172 19.2897C23.8838 18.8068 24.9658 18.3584 26.0546 17.9272C26.4259 17.7804 26.7971 17.6333 27.1683 17.4863C29.4828 16.5695 31.796 15.6533 34.1264 14.7799C34.6629 14.5791 34.7626 14.2844 34.7944 13.7938C34.8105 13.5331 34.8893 13.2764 34.9681 13.0195C35.0033 12.9047 35.0386 12.7899 35.0682 12.6747C35.1097 12.6816 35.1515 12.688 35.1933 12.6944C35.2205 12.6986 35.2477 12.7028 35.2749 12.7071C35.6289 13.2619 35.9825 13.8166 36.3376 14.3737C36.6337 14.8382 36.9309 15.3044 37.2302 15.7736C37.4323 15.4182 37.666 15.006 38 14.4166C37.8832 14.4389 37.7809 14.4585 37.687 14.4764C37.4427 14.5232 37.2548 14.5592 37.0136 14.6048C34.1411 10.1636 31.3579 5.62389 30.8236 0C30.4511 0.0482321 30.082 0.0957298 29.7153 0.142914C28.7217 0.270786 27.7459 0.396356 26.7701 0.52799C26.0824 0.621011 25.3957 0.72603 24.7091 0.83104C23.2513 1.054 21.7939 1.27691 20.3275 1.38482C17.7193 1.57639 15.1001 1.52923 12.5474 0.795354C12.0623 0.656409 11.6791 0.674514 11.3823 1.19535C10.4141 2.88682 9.42695 4.56721 8.42088 6.23651C6.80867 8.9093 4.98524 11.4217 2.5999 13.4566C2.46489 13.5714 2.3345 13.6975 2.20285 13.8248C1.64252 14.3668 1.0594 14.9309 0 14.7366L0.54269 16.4628C0.597478 16.2924 0.633101 16.1368 0.664086 16.0015C0.719746 15.7584 0.760442 15.5806 0.870391 15.4995C1.58707 14.9655 2.32466 14.4638 3.12113 13.922C3.39217 13.7376 3.67003 13.5487 3.95621 13.3522C3.95621 13.631 3.95918 13.8949 3.96204 14.1484C3.96839 14.7122 3.97415 15.2243 3.94536 15.734C3.91822 16.2035 4.14323 16.4161 4.51894 16.5487C5.83275 17.0117 7.14701 17.4726 8.49902 17.9468C9.00499 18.1243 9.51625 18.3036 10.0348 18.4855C10.0421 18.4728 10.0575 18.4531 10.0774 18.4278C10.146 18.3401 10.2679 18.1844 10.2944 18.0135C10.3495 17.6696 10.4074 17.3257 10.4653 16.9817C10.6622 15.8126 10.8591 14.6427 10.9481 13.4663C11.1213 11.2099 11.2548 8.95033 11.3883 6.69147C11.463 5.42657 11.5377 4.16187 11.6194 2.89805C11.6382 2.605 11.7576 2.0808 11.8657 2.0707C12.2815 2.03429 12.2817 2.29024 12.2819 2.55035C12.2819 2.67229 12.282 2.79514 12.3249 2.88921C12.6769 3.65496 13.013 4.42923 13.349 5.20335C14.0431 6.8026 14.737 8.4012 15.5702 9.92276C16.3431 11.3366 17.2931 12.6518 18.2426 13.9664C18.6003 14.4616 18.9579 14.9567 19.306 15.457C19.4375 15.646 19.7422 15.8894 19.9067 15.8498C20.3998 15.7324 20.8835 15.571 21.3675 15.4095C21.6158 15.3267 21.8641 15.2438 22.1138 15.1669C23.3524 14.7803 24.5935 14.3989 25.8387 14.03C27.1448 13.6452 28.4528 13.2689 29.7628 12.9012C31.1738 12.5038 32.5865 12.1151 34.0037 11.7459C34.1302 11.7127 34.2731 11.7442 34.4164 11.7759C34.4821 11.7904 34.5479 11.8049 34.6124 11.8132L34.6138 11.837C34.6179 11.9072 34.6221 11.9786 34.627 12.049C33.8478 12.2945 33.0688 12.5416 32.2897 12.7888C30.6632 13.3048 29.0361 13.8211 27.405 14.3227C26.0372 14.7422 24.6653 15.1489 23.2934 15.5555C22.4212 15.814 21.5489 16.0726 20.6777 16.3344C20.2102 16.4746 20.0933 16.7454 20.4273 17.1639C20.8729 17.7276 21.3112 18.2964 21.7689 18.8903C21.9101 19.0737 22.0532 19.2594 22.199 19.448C21.6227 19.6572 21.3828 19.3242 21.1571 19.0108C21.0842 18.9096 21.0128 18.8105 20.932 18.7323C20.6769 18.4867 20.453 18.2084 20.2134 17.9106C20.0989 17.7682 19.9809 17.6214 19.8541 17.4717C19.687 17.8893 19.7309 18.3006 19.7728 18.6922C19.8278 19.2064 19.8792 19.6868 19.4446 20.1036C19.3252 19.3445 19.2471 18.587 19.2659 17.8329C19.283 17.19 19.0847 16.7054 18.6502 16.2308C17.2171 14.6646 16.0812 12.8785 15.1578 10.9707C14.4656 9.53902 13.815 8.0867 13.1494 6.60065Z" fill="white"/>
</svg>
