<svg width="35" height="23" viewBox="0 0 35 23" fill="none" xmlns="http://www.w3.org/2000/svg">
<path d="M9.98668 0.430687L8.27902 0.755096C8.3647 0.357696 8.64157 0.0742448 8.99563 0.0126074C9.37314 -0.0510573 9.80521 0.132233 9.98668 0.430687Z" fill="#141A32"/>
<path d="M12.4815 16.0539C12.8357 15.901 13.1986 15.7444 13.5589 15.5813C14.1537 15.3122 14.7473 15.0404 15.341 14.7686C16.4894 14.2428 17.6388 13.7166 18.7954 13.2099C19.9657 12.6907 21.189 12.3016 22.4436 12.0493C23.1133 11.9179 23.7879 11.8263 24.4738 11.8543C24.5459 11.857 24.6188 11.8546 24.7203 11.8512L24.7369 11.8506L24.6746 11.6872C24.6243 11.5551 24.5774 11.4317 24.5292 11.3089C23.9229 9.76185 23.2621 8.23916 22.4011 6.81258C21.3616 5.09079 20.0658 3.62082 18.3003 2.61272C17.1204 1.93308 15.8197 1.49092 14.4711 1.31104C13.6094 1.19668 12.7388 1.13059 11.8702 1.0945C11.0452 1.05838 10.2188 1.11004 9.40467 1.24859C9.32856 1.25823 9.25572 1.28553 9.19195 1.32833C9.12818 1.37113 9.07522 1.42824 9.03727 1.49514C8.70302 2.03406 8.60035 2.63259 8.58014 3.25099C8.54296 4.40061 8.75758 5.5182 9.02191 6.62848C9.4177 8.28615 9.95795 9.89826 10.4983 11.5106C10.6753 12.0387 10.8523 12.567 11.0242 13.0968C11.2553 13.8088 11.4717 14.5239 11.6916 15.2504C11.7929 15.585 11.895 15.9223 11.9995 16.2626C12.1566 16.1941 12.3165 16.125 12.4782 16.0553L12.4794 16.0547L12.4815 16.0539Z" fill="#141A32"/>
<path d="M33.8855 16.2695C33.7191 16.1983 33.554 16.1274 33.3897 16.0567C33.155 15.9558 32.9217 15.8556 32.6875 15.7561C32.1233 15.5167 31.5593 15.2765 30.9954 15.0363C29.2068 14.2744 27.418 13.5125 25.6192 12.776C25.2389 12.6199 24.7785 12.6162 24.3553 12.6179C22.8283 12.6248 21.3846 13.0574 19.9598 13.5574C18.3071 14.138 16.7095 14.8525 15.112 15.567C14.7289 15.7384 14.3457 15.9098 13.9618 16.0793C12.3515 16.791 10.7404 17.4986 9.04894 18.0018C8.93806 18.0346 8.82718 18.0654 8.70404 18.0995C8.64788 18.115 8.58836 18.1315 8.52593 18.149C8.5523 18.1698 8.57518 18.1884 8.59603 18.2054C8.63143 18.2342 8.66102 18.2583 8.69205 18.28C10.5408 19.5683 12.4562 20.7398 14.5297 21.6336C16.1254 22.3229 17.7736 22.8189 19.5136 22.9624C21.5636 23.1315 23.5045 22.7256 25.3536 21.8363C26.2822 21.3898 27.1457 20.8365 28.0099 20.2828C28.2844 20.1069 28.559 19.931 28.8357 19.7585C29.8405 19.1324 30.7519 18.3931 31.6649 17.6498C32.3331 17.1064 33.0299 16.6052 33.852 16.3117C33.858 16.3103 33.8621 16.304 33.8695 16.2927L33.8758 16.2831C33.8771 16.2813 33.8784 16.2793 33.8799 16.2773C33.8816 16.2748 33.8835 16.2722 33.8855 16.2695Z" fill="#141A32"/>
<path d="M1.54162 19.0144C1.15542 19.1037 0.764475 19.1941 0.354255 19.2869C0.330089 19.0547 0.303632 18.8262 0.277435 18.5998C0.221261 18.1145 0.166279 17.6395 0.137613 17.1616C0.0705195 16.0367 0.0167629 14.9102 0.00180862 13.7837C-0.0220384 12.0129 0.188541 10.2688 0.716402 8.57252C1.13918 7.21325 1.78627 5.97563 2.72276 4.8982C3.96764 3.46594 5.53385 2.51988 7.29285 1.86864C7.47889 1.79984 7.66697 1.73679 7.8622 1.67133C7.9558 1.63995 8.05105 1.60802 8.1485 1.57464C8.1267 1.65362 8.1046 1.72828 8.08332 1.80021C8.03871 1.95095 7.99761 2.08981 7.97026 2.23116C7.78999 3.17316 7.86315 4.11354 8.00259 5.0527C8.22328 6.53727 8.60361 7.98493 9.04821 9.41435C9.43381 10.6545 9.83047 11.8895 10.2271 13.1243C10.469 13.8776 10.7109 14.6308 10.9503 15.3851C11.0335 15.6429 11.1033 15.9044 11.1742 16.1698C11.2067 16.2913 11.2394 16.4136 11.2736 16.5367C11.1621 16.5758 11.053 16.6154 10.9456 16.6544C10.6993 16.7438 10.4603 16.8306 10.2187 16.9017L9.96145 16.9778C9.35035 17.1588 8.73861 17.34 8.1194 17.4872C6.61847 17.8441 5.1152 18.1904 3.6119 18.5367C3.04173 18.668 2.47152 18.7993 1.90146 18.9312L1.54162 19.0144Z" fill="#141A32"/>
<path d="M29.8106 20.0302C30.8461 20.3988 31.861 20.6473 32.9304 20.4101C34.7052 20.0164 35.2695 18.2435 34.8855 17.1125C34.7927 16.8375 34.7879 16.8385 34.5263 16.8904L34.5003 16.8956C33.8071 17.033 33.213 17.3793 32.6641 17.7999C32.166 18.182 31.6762 18.576 31.1863 18.97C30.9211 19.1834 30.6556 19.3969 30.3889 19.6084C30.2705 19.7021 30.1473 19.7897 30.0151 19.8836C29.9493 19.9304 29.8813 19.9787 29.8106 20.0302Z" fill="#141A32"/>
</svg>
