<svg width="22" height="22" viewBox="0 0 22 22" fill="none" xmlns="http://www.w3.org/2000/svg">
<path d="M4.58333 20.1665C4.07917 20.1665 3.64757 19.987 3.28854 19.628C2.92951 19.2689 2.75 18.8373 2.75 18.3332V7.33317C2.75 6.829 2.92951 6.39741 3.28854 6.03838C3.64757 5.67935 4.07917 5.49984 4.58333 5.49984H6.41667C6.41667 4.23178 6.86354 3.15088 7.75729 2.25713C8.65104 1.36338 9.73194 0.916504 11 0.916504C12.2681 0.916504 13.349 1.36338 14.2427 2.25713C15.1365 3.15088 15.5833 4.23178 15.5833 5.49984H17.4167C17.9208 5.49984 18.3524 5.67935 18.7115 6.03838C19.0705 6.39741 19.25 6.829 19.25 7.33317V18.3332C19.25 18.8373 19.0705 19.2689 18.7115 19.628C18.3524 19.987 17.9208 20.1665 17.4167 20.1665H4.58333ZM4.58333 18.3332H17.4167V7.33317H4.58333V18.3332ZM8.25 5.49984H13.75C13.75 4.73595 13.4826 4.08664 12.9479 3.55192C12.4132 3.0172 11.7639 2.74984 11 2.74984C10.2361 2.74984 9.58681 3.0172 9.05208 3.55192C8.51736 4.08664 8.25 4.73595 8.25 5.49984ZM10.9771 12.8332C12.1076 12.8332 13.1313 12.4589 14.0479 11.7103C14.9646 10.9616 15.4153 10.1214 15.4 9.18942C15.4 8.9297 15.316 8.70817 15.1479 8.52484C14.9799 8.3415 14.766 8.24984 14.5063 8.24984C14.2924 8.24984 14.1014 8.31859 13.9333 8.45609C13.7653 8.59359 13.6431 8.79984 13.5667 9.07484C13.3986 9.65539 13.0701 10.1214 12.5813 10.4728C12.0924 10.8241 11.5576 10.9998 10.9771 10.9998C10.3965 10.9998 9.85799 10.8241 9.36146 10.4728C8.86493 10.1214 8.54028 9.65539 8.3875 9.07484C8.31111 8.78456 8.19653 8.57449 8.04375 8.44463C7.89097 8.31477 7.70764 8.24984 7.49375 8.24984C7.23403 8.24984 7.01632 8.3415 6.84063 8.52484C6.66493 8.70817 6.57708 8.9297 6.57708 9.18942C6.57708 10.1214 7.02778 10.9616 7.92917 11.7103C8.83056 12.4589 9.84653 12.8332 10.9771 12.8332Z" fill="#141A32"/>
</svg>
