<svg width="20" height="20" viewBox="0 0 20 20" fill="none" xmlns="http://www.w3.org/2000/svg">
<path d="M10.2109 17.6338C8.46094 17.6338 6.91233 17.1025 5.5651 16.04C4.21788 14.9775 3.34288 13.6199 2.9401 11.9671C2.88455 11.7588 2.92622 11.5678 3.0651 11.3942C3.20399 11.2206 3.39149 11.1199 3.6276 11.0921C3.84983 11.0643 4.05122 11.106 4.23177 11.2171C4.41233 11.3282 4.53733 11.4949 4.60677 11.7171C4.9401 12.9671 5.6276 13.988 6.66927 14.7796C7.71094 15.5713 8.89149 15.9671 10.2109 15.9671C11.8359 15.9671 13.2144 15.4011 14.3464 14.2692C15.4783 13.1373 16.0443 11.7588 16.0443 10.1338C16.0443 8.50879 15.4783 7.13032 14.3464 5.99837C13.2144 4.86643 11.8359 4.30046 10.2109 4.30046C9.2526 4.30046 8.35677 4.52268 7.52344 4.96712C6.6901 5.41157 5.98872 6.02268 5.41927 6.80046H6.8776C7.11372 6.80046 7.31163 6.88032 7.47135 7.04004C7.63108 7.19976 7.71094 7.39768 7.71094 7.63379C7.71094 7.8699 7.63108 8.06782 7.47135 8.22754C7.31163 8.38726 7.11372 8.46712 6.8776 8.46712H3.54427C3.30816 8.46712 3.11024 8.38726 2.95052 8.22754C2.7908 8.06782 2.71094 7.8699 2.71094 7.63379V4.30046C2.71094 4.06434 2.7908 3.86643 2.95052 3.70671C3.11024 3.54698 3.30816 3.46712 3.54427 3.46712C3.78038 3.46712 3.9783 3.54698 4.13802 3.70671C4.29774 3.86643 4.3776 4.06434 4.3776 4.30046V5.42546C5.08594 4.53657 5.95052 3.84907 6.97135 3.36296C7.99219 2.87684 9.07205 2.63379 10.2109 2.63379C11.2526 2.63379 12.2283 2.83171 13.138 3.22754C14.0477 3.62337 14.8394 4.15809 15.513 4.83171C16.1866 5.50532 16.7214 6.29698 17.1172 7.20671C17.513 8.11643 17.7109 9.09212 17.7109 10.1338C17.7109 11.1755 17.513 12.1511 17.1172 13.0609C16.7214 13.9706 16.1866 14.7623 15.513 15.4359C14.8394 16.1095 14.0477 16.6442 13.138 17.04C12.2283 17.4359 11.2526 17.6338 10.2109 17.6338ZM11.0443 9.80046L13.1276 11.8838C13.2804 12.0366 13.3568 12.231 13.3568 12.4671C13.3568 12.7032 13.2804 12.8977 13.1276 13.0505C12.9748 13.2032 12.7804 13.2796 12.5443 13.2796C12.3082 13.2796 12.1137 13.2032 11.9609 13.0505L9.6276 10.7171C9.54427 10.6338 9.48177 10.54 9.4401 10.4359C9.39844 10.3317 9.3776 10.2241 9.3776 10.113V6.80046C9.3776 6.56434 9.45747 6.36643 9.61719 6.20671C9.77691 6.04698 9.97483 5.96712 10.2109 5.96712C10.447 5.96712 10.645 6.04698 10.8047 6.20671C10.9644 6.36643 11.0443 6.56434 11.0443 6.80046V9.80046Z" fill="#747680"/>
</svg>
