<svg width="24" height="24" viewBox="0 0 24 24" fill="none" xmlns="http://www.w3.org/2000/svg">
<path d="M11.908 13.8148L7.00801 18.7148C6.82467 18.8982 6.59134 18.9898 6.30801 18.9898C6.02467 18.9898 5.79134 18.8982 5.60801 18.7148C5.42467 18.5315 5.33301 18.2982 5.33301 18.0148C5.33301 17.7315 5.42467 17.4982 5.60801 17.3148L10.508 12.4148L5.60801 7.51484C5.42467 7.33151 5.33301 7.09818 5.33301 6.81484C5.33301 6.53151 5.42467 6.29818 5.60801 6.11484C5.79134 5.93151 6.02467 5.83984 6.30801 5.83984C6.59134 5.83984 6.82467 5.93151 7.00801 6.11484L11.908 11.0148L16.808 6.11484C16.9913 5.93151 17.2247 5.83984 17.508 5.83984C17.7913 5.83984 18.0247 5.93151 18.208 6.11484C18.3913 6.29818 18.483 6.53151 18.483 6.81484C18.483 7.09818 18.3913 7.33151 18.208 7.51484L13.308 12.4148L18.208 17.3148C18.3913 17.4982 18.483 17.7315 18.483 18.0148C18.483 18.2982 18.3913 18.5315 18.208 18.7148C18.0247 18.8982 17.7913 18.9898 17.508 18.9898C17.2247 18.9898 16.9913 18.8982 16.808 18.7148L11.908 13.8148Z" fill="white"/>
</svg>
