<svg width="22" height="22" viewBox="0 0 22 22" fill="none" xmlns="http://www.w3.org/2000/svg">
<path d="M10.9158 12.6634L6.42409 17.1551C6.25603 17.3232 6.04214 17.4072 5.78242 17.4072C5.5227 17.4072 5.30881 17.3232 5.14076 17.1551C4.9727 16.9871 4.88867 16.7732 4.88867 16.5134C4.88867 16.2537 4.9727 16.0398 5.14076 15.8718L9.63242 11.3801L5.14076 6.88844C4.9727 6.72039 4.88867 6.5065 4.88867 6.24678C4.88867 5.98706 4.9727 5.77317 5.14076 5.60511C5.30881 5.43706 5.5227 5.35303 5.78242 5.35303C6.04214 5.35303 6.25603 5.43706 6.42409 5.60511L10.9158 10.0968L15.4074 5.60511C15.5755 5.43706 15.7894 5.35303 16.0491 5.35303C16.3088 5.35303 16.5227 5.43706 16.6908 5.60511C16.8588 5.77317 16.9428 5.98706 16.9428 6.24678C16.9428 6.5065 16.8588 6.72039 16.6908 6.88844L12.1991 11.3801L16.6908 15.8718C16.8588 16.0398 16.9428 16.2537 16.9428 16.5134C16.9428 16.7732 16.8588 16.9871 16.6908 17.1551C16.5227 17.3232 16.3088 17.4072 16.0491 17.4072C15.7894 17.4072 15.5755 17.3232 15.4074 17.1551L10.9158 12.6634Z" fill="#141A32"/>
</svg>
