<svg width="20" height="20" viewBox="0 0 20 20" fill="none" xmlns="http://www.w3.org/2000/svg">
<path d="M9.9235 11.5125L5.84017 15.5959C5.68739 15.7486 5.49295 15.825 5.25684 15.825C5.02072 15.825 4.82628 15.7486 4.6735 15.5959C4.52072 15.4431 4.44434 15.2486 4.44434 15.0125C4.44434 14.7764 4.52072 14.582 4.6735 14.4292L8.75684 10.3459L4.6735 6.26253C4.52072 6.10975 4.44434 5.91531 4.44434 5.6792C4.44434 5.44309 4.52072 5.24864 4.6735 5.09587C4.82628 4.94309 5.02072 4.8667 5.25684 4.8667C5.49295 4.8667 5.68739 4.94309 5.84017 5.09587L9.9235 9.1792L14.0068 5.09587C14.1596 4.94309 14.3541 4.8667 14.5902 4.8667C14.8263 4.8667 15.0207 4.94309 15.1735 5.09587C15.3263 5.24864 15.4027 5.44309 15.4027 5.6792C15.4027 5.91531 15.3263 6.10975 15.1735 6.26253L11.0902 10.3459L15.1735 14.4292C15.3263 14.582 15.4027 14.7764 15.4027 15.0125C15.4027 15.2486 15.3263 15.4431 15.1735 15.5959C15.0207 15.7486 14.8263 15.825 14.5902 15.825C14.3541 15.825 14.1596 15.7486 14.0068 15.5959L9.9235 11.5125Z" fill="white"/>
</svg>
