<svg width="35" height="19" viewBox="0 0 35 19" fill="none" xmlns="http://www.w3.org/2000/svg">
<path d="M33.1352 16.9167C32.7649 17.1703 32.4085 17.4475 32.0227 17.6721C30.8569 18.3446 29.5818 18.6712 28.2665 18.835C25.8689 19.1334 23.4765 18.9983 21.0948 18.6594C19.5479 18.4401 18.0106 18.1474 16.4685 17.8909C14.9681 17.6411 13.4594 17.5116 11.9387 17.5643C11.049 17.5925 10.2063 17.8138 9.38018 18.1261C7.09026 18.993 4.75425 19.0893 2.38685 18.5512C1.74235 18.405 1.12209 18.1796 0.581303 17.7685C0.375477 17.6125 0.2372 17.4255 0.181968 17.1588C-0.0711426 15.9384 -0.102135 14.7318 0.361173 13.551C0.42753 13.3828 0.516138 13.2244 0.596005 13.061C0.612643 13.0323 0.631512 13.005 0.652429 12.9794C1.58938 13.8777 2.77546 14.0177 3.96115 14.1471C4.34181 14.188 4.72644 14.1929 5.10948 14.2023C5.83544 14.2198 6.49821 14.4766 7.15503 14.7576C7.44642 14.8817 7.73516 15.0098 8.02125 15.1418C8.63183 15.4292 9.29029 15.5938 9.9611 15.6269C10.7093 15.6599 11.4599 15.7449 12.2057 15.7122C12.7779 15.6869 13.3183 15.771 13.8666 15.8927C15.6499 16.2909 17.4335 16.6882 19.2173 17.0845C19.5193 17.1511 19.8257 17.1972 20.1292 17.2544C20.4328 17.3116 20.6959 17.2029 20.9406 17.0417C21.2005 16.8702 21.4516 16.6856 21.7043 16.5031C22.5054 15.9249 23.3116 15.9151 24.1127 16.4929C24.5803 16.8302 25.0349 17.187 25.4958 17.5349C25.8052 17.7711 26.1835 17.8923 26.5687 17.8787C28.025 17.8579 29.459 17.7064 30.8445 17.2176C31.7465 16.8992 32.5774 16.4496 33.2966 15.7996C34.131 15.0458 34.7064 14.1255 35 13.0112C34.996 13.1113 34.9968 13.2121 34.9869 13.3117C34.8899 14.3437 34.4995 15.3235 33.8644 16.1291C33.8313 16.1763 33.8007 16.2252 33.7726 16.2757L33.1352 16.9167Z" fill="#141A32"/>
<path d="M13.4105 3.46858C13.2575 3.25054 13.1208 3.08354 13.0131 2.89694C12.7159 2.37757 12.6277 1.82309 12.7807 1.23308C13.0282 0.278036 14.0788 -0.505921 15.1703 0.401755C16.0842 1.16326 16.952 1.98723 17.8397 2.78425C17.8508 2.80008 17.86 2.81721 17.8671 2.83529C17.6792 3.10804 17.4829 3.38773 17.2918 3.6711C17.1563 3.87199 16.9938 4.05655 16.987 4.32685C16.9799 4.61757 17.049 4.83397 17.192 4.88338C17.4543 4.97402 17.7988 4.84541 17.947 4.61103C18.1854 4.23906 18.4306 3.87117 18.6817 3.48777C18.9388 3.68825 19.1851 3.87567 19.4232 4.07329C19.4396 4.09561 19.4503 4.12183 19.4542 4.14952C19.4582 4.17721 19.4553 4.20548 19.4458 4.23171C19.2213 4.64002 18.9944 5.04834 18.754 5.44971C18.6448 5.6314 18.6463 5.80289 18.7278 5.98459C18.8093 6.16629 18.9551 6.22468 19.1327 6.22958C19.4057 6.23693 19.627 6.15976 19.7839 5.89722C20.0017 5.53259 20.25 5.18757 20.4924 4.82336C20.7408 5.01445 20.9764 5.19737 21.214 5.37784C21.2935 5.43909 21.2967 5.49707 21.243 5.58486C20.982 6.01318 20.7312 6.44803 20.4694 6.87634C20.2604 7.2181 20.4467 7.62315 20.8357 7.64642C21.1357 7.66438 21.3781 7.58231 21.5231 7.26832C21.6849 6.91881 21.8808 6.58563 22.0639 6.24755C22.0826 6.21325 22.1088 6.18262 22.1434 6.13444L23.0291 6.71547C22.8098 7.12378 22.6011 7.52638 22.3774 7.92162C22.1788 8.27277 22.3274 8.63045 22.7164 8.70517C23.0474 8.76887 23.3664 8.70517 23.678 8.59697C23.7328 8.57819 23.7789 8.50714 23.8111 8.44957C24.003 8.10332 24.1901 7.75544 24.3769 7.40878L25.1915 7.87467C25.0075 8.15395 24.8164 8.4463 24.6248 8.73457C24.5672 8.82236 24.5056 8.90728 24.4496 8.9963C24.4072 9.06272 24.3813 9.13883 24.3742 9.21794C24.3671 9.29705 24.3791 9.37674 24.409 9.45C24.4389 9.52327 24.4858 9.58786 24.5457 9.63811C24.6056 9.68836 24.6766 9.72273 24.7524 9.7382C25.0754 9.80394 25.3456 9.67409 25.4994 9.38378C25.6802 9.04325 25.8673 8.70599 26.0442 8.36301C26.0986 8.25725 26.1542 8.23602 26.2603 8.28584C26.5035 8.39975 26.7514 8.50306 27.0201 8.62024C26.7991 8.96853 26.5905 9.30294 26.3764 9.63326C26.1511 9.98033 26.3326 10.3911 26.734 10.4205C27.0201 10.4413 27.2533 10.3584 27.4035 10.0685C27.6208 9.64919 27.8656 9.24455 28.1056 8.82154C28.7656 9.10736 29.4641 8.98078 30.142 9.05264C31.2061 9.16534 32.2337 9.39358 33.1619 9.96889C33.771 10.3466 34.2772 10.8321 34.576 11.5099C34.6195 11.6154 34.6272 11.7329 34.5979 11.8435C34.2983 12.8401 33.7444 13.6727 32.9938 14.3656C31.7223 15.5391 30.1857 16.0519 28.5208 16.2222C28.0381 16.2716 27.5501 16.2761 27.0642 16.2871C26.7344 16.2945 26.4328 16.1679 26.1503 16.0066C25.5511 15.6632 24.9626 15.3002 24.3654 14.9531C24.1417 14.8233 23.91 14.7082 23.6756 14.5983C23.2671 14.4097 22.8491 14.4052 22.4438 14.602C22.0254 14.8062 21.6185 15.0336 21.2065 15.2512C21.0845 15.3157 20.9641 15.3831 20.8413 15.446C20.4773 15.6326 20.1118 15.695 19.6973 15.5983C18.1874 15.2451 16.6687 14.9131 15.1505 14.5885C14.3204 14.4109 13.4796 14.2553 12.6313 14.2843C11.5326 14.3223 10.4494 14.2027 9.3619 14.0851C8.69118 14.0136 8.0733 13.7731 7.45463 13.5237C7.18841 13.4148 6.92245 13.3059 6.65676 13.197C6.01224 12.934 5.32817 12.7881 4.63505 12.7658C3.74062 12.7336 2.85612 12.6025 2.01255 12.2738C1.66805 12.1391 1.34223 11.9692 1.08633 11.6854C0.913089 11.4935 0.844745 11.293 0.90395 11.0138C1.14435 9.87621 1.38077 8.73702 1.57269 7.59007C1.68951 6.89105 1.7205 6.1765 1.79163 5.4693C1.8111 5.27658 1.83613 5.08427 1.85957 4.89154C1.98752 3.84137 2.55493 3.11417 3.43983 2.62011L3.60512 2.5262C4.06644 2.26651 4.35571 2.32817 4.67558 2.76016C4.90048 3.06394 5.11266 3.37875 5.34511 3.67641C5.94312 4.44159 6.7259 4.91645 7.6386 5.1745C8.37977 5.38353 9.14784 5.47402 9.91581 5.44276C10.7721 5.40928 11.5052 5.02302 12.1755 4.50977C12.6051 4.18721 12.9996 3.81932 13.4105 3.46858Z" fill="#141A32"/>
</svg>
