<svg width="22" height="22" viewBox="0 0 22 22" fill="none" xmlns="http://www.w3.org/2000/svg">
<path d="M10.5632 18.7621C10.3493 18.7621 10.1316 18.7239 9.91003 18.6476C9.6885 18.5712 9.49371 18.4489 9.32565 18.2809L7.7444 16.8371C6.12496 15.3552 4.66211 13.8847 3.35586 12.4257C2.04961 10.9667 1.39648 9.35867 1.39648 7.60173C1.39648 6.16561 1.87773 4.96631 2.84023 4.00381C3.80273 3.04131 5.00204 2.56006 6.43815 2.56006C7.24787 2.56006 8.01176 2.73193 8.72982 3.07568C9.44787 3.41943 10.059 3.88923 10.5632 4.48506C11.0673 3.88923 11.6784 3.41943 12.3965 3.07568C13.1145 2.73193 13.8784 2.56006 14.6882 2.56006C16.1243 2.56006 17.3236 3.04131 18.2861 4.00381C19.2486 4.96631 19.7298 6.16561 19.7298 7.60173C19.7298 9.35867 19.0805 10.9705 17.7819 12.4371C16.4833 13.9038 15.009 15.3781 13.359 16.8601L11.8007 18.2809C11.6326 18.4489 11.4378 18.5712 11.2163 18.6476C10.9947 18.7239 10.777 18.7621 10.5632 18.7621ZM9.69232 6.31839C9.24926 5.692 8.77565 5.21457 8.27148 4.8861C7.76732 4.55763 7.15621 4.39339 6.43815 4.39339C5.52148 4.39339 4.7576 4.69895 4.14648 5.31006C3.53537 5.92117 3.22982 6.68506 3.22982 7.60173C3.22982 8.39617 3.51246 9.24027 4.07773 10.134C4.64301 11.0278 5.31905 11.8948 6.10586 12.7351C6.89266 13.5753 7.70239 14.3621 8.53503 15.0955C9.36766 15.8288 10.0437 16.4323 10.5632 16.9059C11.0826 16.4323 11.7586 15.8288 12.5913 15.0955C13.4239 14.3621 14.2336 13.5753 15.0204 12.7351C15.8072 11.8948 16.4833 11.0278 17.0486 10.134C17.6138 9.24027 17.8965 8.39617 17.8965 7.60173C17.8965 6.68506 17.5909 5.92117 16.9798 5.31006C16.3687 4.69895 15.6048 4.39339 14.6882 4.39339C13.9701 4.39339 13.359 4.55763 12.8548 4.8861C12.3507 5.21457 11.877 5.692 11.434 6.31839C11.327 6.47117 11.1972 6.58575 11.0444 6.66214C10.8916 6.73853 10.7312 6.77673 10.5632 6.77673C10.3951 6.77673 10.2347 6.73853 10.0819 6.66214C9.92912 6.58575 9.79926 6.47117 9.69232 6.31839Z" fill="#141A32"/>
</svg>
