<svg width="34" height="23" viewBox="0 0 34 23" fill="none" xmlns="http://www.w3.org/2000/svg">
<path d="M16.0378 8.9184C15.6599 9.36612 15.5315 9.8992 15.5204 10.4634C15.5254 11.0416 15.6515 11.5758 16.0203 12.0285C16.2756 12.3415 16.5951 12.5445 17.0156 12.5339C17.3897 12.524 17.6796 12.3392 17.9173 12.0661C18.2144 11.7246 18.3584 11.3175 18.4229 10.8751C18.5175 10.2251 18.4047 9.61691 18.045 9.066C17.8307 8.73818 17.5375 8.50028 17.1333 8.44754C16.6786 8.38722 16.3227 8.5811 16.0378 8.9184Z" fill="#141A32"/>
<path fill-rule="evenodd" clip-rule="evenodd" d="M29.4783 13.0863C29.4778 13.0263 29.4761 12.9671 29.4745 12.9085C29.4674 12.6569 29.4606 12.4167 29.5478 12.1757C29.8152 11.4203 30.0728 10.6589 30.3302 9.89844L30.45 9.54444C30.5822 9.1544 30.6308 8.74766 30.6422 8.33903C30.6473 8.15388 30.6064 7.97036 30.5233 7.8048C30.4171 7.60514 30.2838 7.41771 30.1511 7.23104C30.1073 7.16944 30.0634 7.10781 30.0208 7.04597C30.0093 7.02924 29.9898 7.01853 29.9677 7.00635C29.9546 6.9992 29.9407 6.99154 29.9269 6.98185C29.8724 7.05272 29.8932 7.11494 29.9127 7.17347C29.9181 7.18952 29.9233 7.20529 29.9269 7.22088C30.0606 7.81353 30.1237 8.41301 29.9892 9.00984C29.9312 9.26727 29.8307 9.51611 29.7306 9.76378C29.7081 9.81939 29.6856 9.87511 29.6637 9.93069C29.3879 10.6277 29.1091 11.3239 28.8196 12.0152C28.7131 12.2601 28.6646 12.5263 28.678 12.793C28.697 13.1599 28.6886 13.1633 28.3406 13.2441C27.1828 13.5135 26.0182 13.7499 24.8422 13.9271C24.7077 13.9474 24.5732 13.9678 24.4387 13.9883C23.7874 14.0874 23.1361 14.1866 22.4821 14.2617C21.6555 14.3566 20.8259 14.4397 19.9952 14.481C18.8746 14.5369 17.7528 14.5674 16.6297 14.5725C15.5137 14.582 14.398 14.5349 13.2869 14.4313C13.0544 14.4088 12.8216 14.3891 12.5888 14.3694C12.2293 14.339 11.8698 14.3086 11.5115 14.2678C10.9138 14.1995 10.3178 14.1178 9.72347 14.0227C8.92387 13.8952 8.12465 13.7617 7.33037 13.6103C6.91702 13.5316 6.5062 13.4398 6.09546 13.348C5.86872 13.2974 5.64184 13.2467 5.41475 13.1982C5.29699 13.1732 5.24913 13.1113 5.26698 12.9949V12.9725C5.33118 12.5676 5.21418 12.2011 5.0573 11.8323C4.80605 11.2423 4.56634 10.647 4.32664 10.0518C4.25577 9.8758 4.1849 9.69978 4.11374 9.52395C3.89988 8.99542 3.85201 8.44488 3.92001 7.88372C3.94041 7.71521 3.97044 7.54784 4.00047 7.38043C4.01625 7.29246 4.03212 7.20395 4.0465 7.11578C4.05067 7.09008 4.05183 7.06406 4.05346 7.02764C4.05435 7.00764 4.05539 6.98439 4.05714 6.95642C4.03328 6.9741 4.01207 6.98832 3.99334 7.00088C3.95901 7.0239 3.93299 7.04135 3.91431 7.06418C3.88693 7.09599 3.86276 7.13059 3.83861 7.16514C3.8115 7.20394 3.78442 7.24269 3.75287 7.27741C3.31983 7.75396 3.2469 8.31398 3.35858 8.92143C3.46153 9.48347 3.64511 10.0223 3.82837 10.5602L3.86683 10.6732C3.97476 10.991 4.08889 11.3071 4.20296 11.6231C4.28036 11.8375 4.35781 12.0521 4.4332 12.2668C4.49393 12.4382 4.48718 12.6122 4.48032 12.789C4.47679 12.8797 4.47324 12.9712 4.47878 13.0635C4.45726 13.0635 4.43935 13.0648 4.42411 13.0658C4.39953 13.0675 4.38187 13.0687 4.3671 13.0635C3.12231 12.5559 1.974 11.9006 1.06918 10.8815C0.729443 10.505 0.476241 10.0589 0.327319 9.57441C0.143088 8.96734 0.203106 8.38645 0.448874 7.81467C0.663114 7.31687 0.985991 6.8923 1.35369 6.49961C1.86384 5.95438 2.44084 5.4858 3.05165 5.06047L3.18141 4.9701C4.07099 4.35043 4.96117 3.73035 5.90552 3.19449C7.33624 2.38612 8.85226 1.73868 10.4258 1.26401C11.3211 0.988843 12.2341 0.774988 13.1585 0.623936C14.0554 0.476721 14.9556 0.368966 15.8673 0.375796C16.2456 0.37827 16.6239 0.378593 17.0022 0.378915C17.4939 0.379335 17.9856 0.379754 18.4773 0.384901C19.161 0.391352 19.8394 0.485827 20.5167 0.582957C21.2818 0.693463 22.0395 0.850196 22.7856 1.0523C25.151 1.68858 27.3701 2.65193 29.3974 4.03642L29.5675 4.15245C30.1982 4.58261 30.8293 5.01307 31.4445 5.46493C32.0572 5.91492 32.6106 6.43359 33.0646 7.049C33.289 7.34571 33.4673 7.67458 33.5933 8.02449C33.8387 8.73172 33.7658 9.4143 33.4349 10.0733C33.1189 10.7043 32.6429 11.2021 32.0974 11.6362C31.3533 12.2281 30.5282 12.6815 29.6496 13.04C29.5935 13.0587 29.5363 13.0742 29.4783 13.0863ZM19.1425 10.0372C19.1141 9.83449 19.0774 9.57267 19.0136 9.31868C18.859 8.70099 18.5578 8.16222 18.0583 7.74713C17.4672 7.25389 16.695 7.21026 16.0538 7.63331C15.617 7.92205 15.3252 8.32992 15.1216 8.80078C14.7459 9.67002 14.6966 10.5689 14.9351 11.4806C15.0821 12.0421 15.3435 12.5479 15.7708 12.9539C16.4412 13.5913 17.3369 13.6441 18.0374 13.0761C18.2101 12.9348 18.3646 12.7726 18.497 12.5931C18.9798 11.9431 19.1481 11.1892 19.172 10.2373C19.1627 10.1813 19.1532 10.1134 19.1425 10.0372Z" fill="#141A32"/>
<path d="M5.50267 16.0819C5.431 16.0647 5.35886 16.0473 5.28596 16.0302C5.28596 16.1236 5.28572 16.2151 5.28549 16.3052C5.28488 16.5371 5.2843 16.7603 5.28786 16.9837C5.29703 17.3264 5.37763 17.6634 5.52451 17.9732C5.77066 18.5147 6.13114 18.9741 6.56608 19.3771C7.33491 20.0893 8.23555 20.5844 9.20305 20.9684C10.7217 21.5697 12.311 21.8691 13.9281 22.0251C15.3865 22.1662 16.8532 22.2004 18.3166 22.1275C19.542 22.0664 20.7587 21.9431 21.9632 21.6991C22.8908 21.5094 23.7956 21.2491 24.6667 20.8769C25.6528 20.4554 26.5553 19.9056 27.3021 19.1233C28.0649 18.3246 28.5138 17.3889 28.545 16.2723C28.546 16.2293 28.5426 16.1861 28.5389 16.1393C28.5372 16.118 28.5354 16.0958 28.534 16.0727C28.5084 16.0769 28.4856 16.0803 28.4647 16.0835C28.4244 16.0896 28.3912 16.0946 28.3585 16.1016C28.0851 16.1599 27.812 16.2198 27.5389 16.2797C26.9346 16.4122 26.3295 16.545 25.7219 16.6605C24.5983 16.8733 23.4716 17.0736 22.3412 17.2474C21.6004 17.3612 20.8529 17.436 20.1057 17.4978C18.7561 17.609 17.4023 17.6139 16.0488 17.5942C14.9184 17.5775 13.7902 17.5236 12.6681 17.3806C12.511 17.3605 12.3538 17.3411 12.1966 17.3217C11.7421 17.2657 11.2876 17.2096 10.8361 17.1366C10.0441 17.0088 9.25433 16.8646 8.46688 16.7105C7.82961 16.5859 7.19436 16.4503 6.55923 16.3148L6.55727 16.3144C6.36547 16.2734 6.17369 16.2325 5.98186 16.1919C5.82251 16.1588 5.66346 16.1206 5.50267 16.0819Z" fill="#141A32"/>
<path d="M5.26927 13.8228C5.32509 13.8335 5.37888 13.8437 5.43125 13.8536C5.54532 13.8752 5.65267 13.8955 5.75967 13.9176C6.07908 13.9838 6.39839 14.0506 6.71769 14.1173C7.43777 14.2679 8.15883 14.4186 8.8802 14.5627C9.47695 14.6829 10.0752 14.8021 10.6773 14.8901C11.5593 15.0187 12.444 15.1352 13.3306 15.2289C15.1987 15.427 17.0745 15.3913 18.9476 15.3427C20.1748 15.3145 21.3983 15.1966 22.6082 14.9899C23.9851 14.7529 25.3594 14.5042 26.7312 14.2439C27.1027 14.1737 27.4701 14.0872 27.8375 14.0006C28.0336 13.9544 28.2298 13.9082 28.4265 13.8645C28.4751 13.8534 28.5246 13.8456 28.5805 13.8368C28.6063 13.8327 28.6334 13.8285 28.6624 13.8235C28.6635 13.8474 28.665 13.8695 28.6664 13.8903C28.6693 13.9336 28.6718 13.9718 28.67 14.0095C28.6602 14.2437 28.6496 14.4777 28.6389 14.7116C28.6313 14.8782 28.6237 15.0448 28.6164 15.2115L28.6163 15.2148C28.6085 15.3975 28.6081 15.406 28.4212 15.4494C28.2977 15.4782 28.1743 15.5076 28.0509 15.537C27.6467 15.6332 27.2425 15.7294 26.8345 15.8068C25.9077 15.9821 24.9797 16.1528 24.0475 16.2936C23.4968 16.3781 22.9423 16.436 22.3879 16.4939C22.1956 16.514 22.0031 16.5341 21.8109 16.5554C20.3394 16.7129 18.8606 16.7942 17.3806 16.7989C16.5079 16.8044 15.6347 16.766 14.7609 16.7277C14.4822 16.7154 14.2028 16.7031 13.9239 16.6923C13.4339 16.673 12.9435 16.6411 12.4554 16.5937C11.7527 16.5254 11.0499 16.4495 10.3506 16.355C9.59091 16.2526 8.83348 16.1463 8.08212 16.0029C7.40698 15.8736 6.73479 15.7208 6.06293 15.568C5.86535 15.523 5.66781 15.4781 5.47022 15.4338C5.25329 15.3852 5.25331 15.3748 5.25369 15.1523L5.2537 15.1477C5.2537 14.7911 5.25446 14.4344 5.25598 14.0778C5.25726 14.0466 5.25914 14.0157 5.26118 13.9823C5.26398 13.9363 5.26707 13.8854 5.26927 13.8228Z" fill="#141A32"/>
</svg>
