<svg width="25" height="24" viewBox="0 0 25 24" fill="none" xmlns="http://www.w3.org/2000/svg">
<path d="M12.2734 20.4678C12.0401 20.4678 11.8026 20.4262 11.5609 20.3428C11.3193 20.2595 11.1068 20.1262 10.9234 19.9428L9.19844 18.3678C7.43177 16.7512 5.83594 15.147 4.41094 13.5553C2.98594 11.9637 2.27344 10.2095 2.27344 8.29285C2.27344 6.72618 2.79844 5.41785 3.84844 4.36785C4.89844 3.31785 6.20677 2.79285 7.77344 2.79285C8.65677 2.79285 9.4901 2.98035 10.2734 3.35535C11.0568 3.73035 11.7234 4.24285 12.2734 4.89285C12.8234 4.24285 13.4901 3.73035 14.2734 3.35535C15.0568 2.98035 15.8901 2.79285 16.7734 2.79285C18.3401 2.79285 19.6484 3.31785 20.6984 4.36785C21.7484 5.41785 22.2734 6.72618 22.2734 8.29285C22.2734 10.2095 21.5651 11.9678 20.1484 13.5678C18.7318 15.1678 17.1234 16.7762 15.3234 18.3928L13.6234 19.9428C13.4401 20.1262 13.2276 20.2595 12.9859 20.3428C12.7443 20.4262 12.5068 20.4678 12.2734 20.4678ZM11.3234 6.89285C10.8401 6.20951 10.3234 5.68868 9.77344 5.33035C9.22344 4.97201 8.55677 4.79285 7.77344 4.79285C6.77344 4.79285 5.9401 5.12618 5.27344 5.79285C4.60677 6.45951 4.27344 7.29285 4.27344 8.29285C4.27344 9.15951 4.58177 10.0803 5.19844 11.0553C5.8151 12.0303 6.5526 12.9762 7.41094 13.8928C8.26927 14.8095 9.1526 15.6678 10.0609 16.4678C10.9693 17.2678 11.7068 17.9262 12.2734 18.4428C12.8401 17.9262 13.5776 17.2678 14.4859 16.4678C15.3943 15.6678 16.2776 14.8095 17.1359 13.8928C17.9943 12.9762 18.7318 12.0303 19.3484 11.0553C19.9651 10.0803 20.2734 9.15951 20.2734 8.29285C20.2734 7.29285 19.9401 6.45951 19.2734 5.79285C18.6068 5.12618 17.7734 4.79285 16.7734 4.79285C15.9901 4.79285 15.3234 4.97201 14.7734 5.33035C14.2234 5.68868 13.7068 6.20951 13.2234 6.89285C13.1068 7.05951 12.9651 7.18451 12.7984 7.26785C12.6318 7.35118 12.4568 7.39285 12.2734 7.39285C12.0901 7.39285 11.9151 7.35118 11.7484 7.26785C11.5818 7.18451 11.4401 7.05951 11.3234 6.89285Z" fill="#141A32"/>
</svg>
