<svg width="22" height="22" viewBox="0 0 22 22" fill="none" xmlns="http://www.w3.org/2000/svg">
<path d="M3.66667 16.5C3.40694 16.5 3.18924 16.4122 3.01354 16.2365C2.83785 16.0608 2.75 15.8431 2.75 15.5833C2.75 15.3236 2.83785 15.1059 3.01354 14.9302C3.18924 14.7545 3.40694 14.6667 3.66667 14.6667H18.3333C18.5931 14.6667 18.8108 14.7545 18.9865 14.9302C19.1622 15.1059 19.25 15.3236 19.25 15.5833C19.25 15.8431 19.1622 16.0608 18.9865 16.2365C18.8108 16.4122 18.5931 16.5 18.3333 16.5H3.66667ZM3.66667 11.9167C3.40694 11.9167 3.18924 11.8288 3.01354 11.6531C2.83785 11.4774 2.75 11.2597 2.75 11C2.75 10.7403 2.83785 10.5226 3.01354 10.3469C3.18924 10.1712 3.40694 10.0833 3.66667 10.0833H18.3333C18.5931 10.0833 18.8108 10.1712 18.9865 10.3469C19.1622 10.5226 19.25 10.7403 19.25 11C19.25 11.2597 19.1622 11.4774 18.9865 11.6531C18.8108 11.8288 18.5931 11.9167 18.3333 11.9167H3.66667ZM3.66667 7.33333C3.40694 7.33333 3.18924 7.24549 3.01354 7.06979C2.83785 6.8941 2.75 6.67639 2.75 6.41667C2.75 6.15694 2.83785 5.93924 3.01354 5.76354C3.18924 5.58785 3.40694 5.5 3.66667 5.5H18.3333C18.5931 5.5 18.8108 5.58785 18.9865 5.76354C19.1622 5.93924 19.25 6.15694 19.25 6.41667C19.25 6.67639 19.1622 6.8941 18.9865 7.06979C18.8108 7.24549 18.5931 7.33333 18.3333 7.33333H3.66667Z" fill="#141A32"/>
</svg>
