<svg width="31" height="22" viewBox="0 0 31 22" fill="none" xmlns="http://www.w3.org/2000/svg">
<path d="M25.6742 1.27295C25.6742 0.978147 25.6742 0.703827 25.6742 0.426473C25.6742 0.0944817 25.8524 -0.0409712 26.154 0.10814C26.4787 0.268634 26.7849 0.470105 27.088 0.670059C27.3342 0.83207 27.561 1.02292 27.8029 1.19138C27.8724 1.23902 27.9539 1.26635 28.0381 1.2703C28.4897 1.27713 28.9414 1.27903 29.3926 1.2703C29.4704 1.26855 29.5477 1.28236 29.6201 1.3109C29.6924 1.33943 29.7583 1.38213 29.8139 1.43648C30.128 1.71687 30.2671 2.08567 30.2796 2.48633C30.3016 3.18484 30.2857 3.88449 30.2857 4.5849C30.1402 4.63119 29.9924 4.66078 29.8591 4.72376C29.4792 4.89981 29.2996 5.21397 29.2893 5.62299C29.2798 5.95232 29.2828 6.28204 29.2893 6.61137C29.2931 6.90238 29.2259 7.05643 28.9474 7.14256C28.6523 7.23248 28.3397 7.31102 28.0335 7.31405C26.2049 7.33113 24.3755 7.32733 22.5465 7.32506C21.9915 7.32506 21.4365 7.30722 20.8815 7.29508C20.4018 7.28484 20.0641 7.59862 20.0124 8.14498C19.979 8.50049 19.9862 8.86056 19.9836 9.21873C19.9794 9.76206 19.9627 10.3065 19.9881 10.8502C20.0113 11.3488 19.7264 11.6201 19.3389 11.8162C19.1767 11.8925 18.9994 11.9314 18.8201 11.9301C17.1646 11.9384 15.5088 11.9483 13.8538 11.9259C13.4546 11.9202 13.0561 11.8071 12.6592 11.7244C12.2197 11.6322 11.8865 11.7957 11.6647 12.1528C11.5089 12.4043 11.3699 12.6862 11.3095 12.9727C11.1466 13.7433 10.8457 14.4612 10.5331 15.1733C10.1297 16.0854 9.68905 16.9843 9.30426 17.9059C9.10179 18.39 9.1451 18.9045 9.35326 19.3902C9.3958 19.4892 9.49457 19.5723 9.58345 19.6417C9.75857 19.7787 9.81592 19.9491 9.77718 20.1612C9.73067 20.407 9.61161 20.6334 9.43531 20.8111C9.24538 21.0111 9.0205 21.1146 8.73485 21.071C7.56945 20.8874 6.40215 20.7166 5.24016 20.5231C4.15605 20.3433 3.07498 20.1437 1.99428 19.9468C1.50883 19.8588 1.11226 19.6053 0.788998 19.2426C0.475615 18.8924 0.43535 18.4879 0.62148 18.0626C0.751392 17.7663 0.893838 17.4756 1.02755 17.1808C2.14813 14.707 3.26744 12.2326 4.38549 9.75751C4.61991 9.25013 4.71295 8.68899 4.6548 8.13322C4.6096 7.71586 4.42233 7.37817 4.07324 7.13231C3.52017 6.74303 2.91316 6.57457 2.23739 6.65652C2.10012 6.67493 1.961 6.67493 1.82373 6.65652C1.54757 6.61554 1.39373 6.43191 1.39563 6.15341C1.39383 5.97352 1.42757 5.79503 1.4949 5.62817C1.56223 5.4613 1.66184 5.30934 1.78802 5.18096C1.87653 5.08952 1.97377 5.00681 2.06342 4.91537C2.207 4.77043 2.30045 4.59742 2.30121 4.39139C2.30387 3.76725 2.29855 3.14349 2.29779 2.51934C2.29779 2.3634 2.28563 2.20519 2.30881 2.05228C2.38782 1.5321 2.6955 1.27258 3.2235 1.27182C4.75179 1.27182 6.27996 1.27182 7.808 1.27182H25.6742V1.27295ZM13.4732 7.728C13.1988 7.9212 12.9939 8.19752 12.889 8.51605C12.6462 9.23429 12.6709 9.9199 13.2008 10.5152C13.3725 10.7083 13.5754 10.8836 13.8629 10.8836C15.0378 10.8836 16.2131 10.8859 17.388 10.8836C17.7724 10.8836 18.1511 10.8324 18.5017 10.6586C18.7593 10.5311 18.9576 10.3471 18.9602 10.0379C18.9674 9.49457 18.9747 8.95086 18.9602 8.4064C18.9435 7.81185 18.5773 7.4108 17.9912 7.31519C17.8713 7.29674 17.7501 7.28773 17.6288 7.28825C16.6678 7.28597 15.7069 7.28597 14.7461 7.28825C14.7016 7.28825 14.6572 7.2947 14.6017 7.29926C14.5539 7.84448 14.5037 8.37794 14.6572 8.90723C14.7457 9.21077 14.8308 9.51847 14.909 9.82618C14.9664 10.0508 14.8996 10.1396 14.6667 10.1715C14.562 10.1882 14.4547 10.171 14.3605 10.1224C14.2663 10.0738 14.1901 9.9963 14.1433 9.90131C13.9785 9.60499 13.8443 9.29278 13.7425 8.96945C13.624 8.57182 13.5636 8.15902 13.4732 7.728Z" fill="#141A32"/>
</svg>
