<svg width="24" height="24" viewBox="0 0 24 24" fill="none" xmlns="http://www.w3.org/2000/svg">
<path d="M3 18.5C2.71667 18.5 2.47917 18.4042 2.2875 18.2125C2.09583 18.0208 2 17.7833 2 17.5C2 17.2167 2.09583 16.9792 2.2875 16.7875C2.47917 16.5958 2.71667 16.5 3 16.5H11C11.2833 16.5 11.5208 16.5958 11.7125 16.7875C11.9042 16.9792 12 17.2167 12 17.5C12 17.7833 11.9042 18.0208 11.7125 18.2125C11.5208 18.4042 11.2833 18.5 11 18.5H3ZM3 13.5C2.71667 13.5 2.47917 13.4042 2.2875 13.2125C2.09583 13.0208 2 12.7833 2 12.5C2 12.2167 2.09583 11.9792 2.2875 11.7875C2.47917 11.5958 2.71667 11.5 3 11.5H6C6.28333 11.5 6.52083 11.5958 6.7125 11.7875C6.90417 11.9792 7 12.2167 7 12.5C7 12.7833 6.90417 13.0208 6.7125 13.2125C6.52083 13.4042 6.28333 13.5 6 13.5H3ZM3 8.5C2.71667 8.5 2.47917 8.40417 2.2875 8.2125C2.09583 8.02083 2 7.78333 2 7.5C2 7.21667 2.09583 6.97917 2.2875 6.7875C2.47917 6.59583 2.71667 6.5 3 6.5H6C6.28333 6.5 6.52083 6.59583 6.7125 6.7875C6.90417 6.97917 7 7.21667 7 7.5C7 7.78333 6.90417 8.02083 6.7125 8.2125C6.52083 8.40417 6.28333 8.5 6 8.5H3ZM14 15.5C12.6167 15.5 11.4375 15.0125 10.4625 14.0375C9.4875 13.0625 9 11.8833 9 10.5C9 9.11667 9.4875 7.9375 10.4625 6.9625C11.4375 5.9875 12.6167 5.5 14 5.5C15.3833 5.5 16.5625 5.9875 17.5375 6.9625C18.5125 7.9375 19 9.11667 19 10.5C19 10.9833 18.9292 11.4625 18.7875 11.9375C18.6458 12.4125 18.4333 12.85 18.15 13.25L21.3 16.4C21.4833 16.5833 21.575 16.8167 21.575 17.1C21.575 17.3833 21.4833 17.6167 21.3 17.8C21.1167 17.9833 20.8833 18.075 20.6 18.075C20.3167 18.075 20.0833 17.9833 19.9 17.8L16.75 14.65C16.35 14.9333 15.9125 15.1458 15.4375 15.2875C14.9625 15.4292 14.4833 15.5 14 15.5ZM14 13.5C14.8333 13.5 15.5417 13.2083 16.125 12.625C16.7083 12.0417 17 11.3333 17 10.5C17 9.66667 16.7083 8.95833 16.125 8.375C15.5417 7.79167 14.8333 7.5 14 7.5C13.1667 7.5 12.4583 7.79167 11.875 8.375C11.2917 8.95833 11 9.66667 11 10.5C11 11.3333 11.2917 12.0417 11.875 12.625C12.4583 13.2083 13.1667 13.5 14 13.5Z" fill="white"/>
</svg>
