<svg width="20" height="20" viewBox="0 0 20 20" fill="none" xmlns="http://www.w3.org/2000/svg">
<path d="M2.50033 15.4168C2.26421 15.4168 2.0663 15.337 1.90658 15.1772C1.74685 15.0175 1.66699 14.8196 1.66699 14.5835C1.66699 14.3474 1.74685 14.1495 1.90658 13.9897C2.0663 13.83 2.26421 13.7502 2.50033 13.7502H9.16699C9.4031 13.7502 9.60102 13.83 9.76074 13.9897C9.92047 14.1495 10.0003 14.3474 10.0003 14.5835C10.0003 14.8196 9.92047 15.0175 9.76074 15.1772C9.60102 15.337 9.4031 15.4168 9.16699 15.4168H2.50033ZM2.50033 11.2502C2.26421 11.2502 2.0663 11.1703 1.90658 11.0106C1.74685 10.8509 1.66699 10.6529 1.66699 10.4168C1.66699 10.1807 1.74685 9.9828 1.90658 9.82308C2.0663 9.66336 2.26421 9.5835 2.50033 9.5835H5.00033C5.23644 9.5835 5.43435 9.66336 5.59408 9.82308C5.7538 9.9828 5.83366 10.1807 5.83366 10.4168C5.83366 10.6529 5.7538 10.8509 5.59408 11.0106C5.43435 11.1703 5.23644 11.2502 5.00033 11.2502H2.50033ZM2.50033 7.0835C2.26421 7.0835 2.0663 7.00364 1.90658 6.84391C1.74685 6.68419 1.66699 6.48627 1.66699 6.25016C1.66699 6.01405 1.74685 5.81614 1.90658 5.65641C2.0663 5.49669 2.26421 5.41683 2.50033 5.41683H5.00033C5.23644 5.41683 5.43435 5.49669 5.59408 5.65641C5.7538 5.81614 5.83366 6.01405 5.83366 6.25016C5.83366 6.48627 5.7538 6.68419 5.59408 6.84391C5.43435 7.00364 5.23644 7.0835 5.00033 7.0835H2.50033ZM11.667 12.9168C10.5142 12.9168 9.53158 12.5106 8.71908 11.6981C7.90658 10.8856 7.50033 9.90294 7.50033 8.75016C7.50033 7.59739 7.90658 6.61475 8.71908 5.80225C9.53158 4.98975 10.5142 4.5835 11.667 4.5835C12.8198 4.5835 13.8024 4.98975 14.6149 5.80225C15.4274 6.61475 15.8337 7.59739 15.8337 8.75016C15.8337 9.15294 15.7746 9.55225 15.6566 9.94808C15.5385 10.3439 15.3614 10.7085 15.1253 11.0418L17.7503 13.6668C17.9031 13.8196 17.9795 14.0141 17.9795 14.2502C17.9795 14.4863 17.9031 14.6807 17.7503 14.8335C17.5975 14.9863 17.4031 15.0627 17.167 15.0627C16.9309 15.0627 16.7364 14.9863 16.5837 14.8335L13.9587 12.2085C13.6253 12.4446 13.2607 12.6217 12.8649 12.7397C12.4691 12.8578 12.0698 12.9168 11.667 12.9168ZM11.667 11.2502C12.3614 11.2502 12.9517 11.0071 13.4378 10.521C13.9239 10.0349 14.167 9.44461 14.167 8.75016C14.167 8.05572 13.9239 7.46544 13.4378 6.97933C12.9517 6.49322 12.3614 6.25016 11.667 6.25016C10.9725 6.25016 10.3823 6.49322 9.89616 6.97933C9.41005 7.46544 9.16699 8.05572 9.16699 8.75016C9.16699 9.44461 9.41005 10.0349 9.89616 10.521C10.3823 11.0071 10.9725 11.2502 11.667 11.2502Z" fill="white"/>
</svg>
