<svg width="26" height="31" viewBox="0 0 26 31" fill="none" xmlns="http://www.w3.org/2000/svg">
<path d="M3.91187 30.9108C3.89021 30.7795 3.84121 30.6452 3.85185 30.5177C4.00797 28.5872 4.17511 26.6575 4.32781 24.7266C4.33868 24.555 4.30368 24.3836 4.22639 24.23C2.9602 21.7923 1.68793 19.3575 0.409581 16.9254C0.167232 16.4621 -0.0386496 15.9856 0.0114916 15.4457C0.074168 14.7688 0.443389 14.2892 1.05838 14.0395C1.65058 13.799 2.16224 14.0471 2.56983 14.4744C3.04959 14.9767 3.49136 15.5147 3.94985 16.0372L4.35668 16.5016V16.0755C4.35668 13.2375 4.35668 10.3993 4.35668 7.56098C4.35668 6.72626 4.72058 6.189 5.40888 5.98981C5.60446 5.93299 5.80998 5.9188 6.01152 5.9482C6.21307 5.97759 6.40594 6.04988 6.57709 6.16018C6.74824 6.27048 6.89367 6.41621 7.00355 6.58752C7.11343 6.75882 7.18518 6.9517 7.21396 7.15311C7.2365 7.31781 7.24729 7.48391 7.24625 7.65014C7.24802 10.0966 7.24802 12.5432 7.24625 14.99V15.3546H7.7583V14.9862C7.7583 11.7566 7.75741 8.52698 7.75564 5.29737C7.75564 4.62846 7.95507 4.08323 8.59133 3.77514C8.79483 3.67708 9.01876 3.62876 9.24465 3.63418C9.47053 3.6396 9.69188 3.69859 9.89044 3.8063C10.089 3.91401 10.2591 4.06734 10.3866 4.25363C10.5141 4.43993 10.5955 4.65384 10.6239 4.87773C10.6437 5.0428 10.6532 5.20892 10.6524 5.37515C10.654 8.56555 10.654 11.7561 10.6524 14.9467V15.3482H11.1649V14.9714C11.1649 12.5052 11.1649 10.039 11.1649 7.57274C11.1649 6.73802 11.5269 6.19887 12.2125 5.99436C12.4122 5.93464 12.6227 5.91955 12.8289 5.95015C13.0351 5.98076 13.2321 6.05631 13.4058 6.17146C13.5795 6.28661 13.7257 6.43852 13.8341 6.61643C13.9424 6.79434 14.0103 6.99389 14.0328 7.20091C14.049 7.35658 14.0568 7.51299 14.0563 7.66949C14.0579 10.0978 14.0579 12.5249 14.0563 14.9509V15.3485H14.568V14.9957C14.568 13.3126 14.568 11.6292 14.568 9.94562C14.568 9.13822 14.9627 8.58655 15.6567 8.39608C16.4806 8.16843 17.3486 8.75539 17.4363 9.60035C17.4521 9.7658 17.4592 9.93196 17.4576 10.0981C17.4576 14.3655 17.4754 18.6324 17.45 22.8993C17.4401 24.5392 17.6213 26.1623 17.7539 27.7881C17.8298 28.7242 17.9275 29.6583 18.0027 30.5958C18.011 30.6979 17.9381 30.8068 17.9028 30.9123L3.91187 30.9108Z" fill="#141A32"/>
<path d="M20.76 13.6218L21.2223 13.7903C21.2755 13.6609 21.3268 13.5486 21.3686 13.4329C21.9437 11.8435 22.5135 10.2522 23.0928 8.66433C23.4726 7.61827 24.5837 7.26541 25.4053 7.91991C25.8991 8.31223 26.0568 8.947 25.8152 9.62198C25.3476 10.9283 24.8724 12.2316 24.4006 13.5361C23.2375 16.7516 22.0367 19.9543 20.9264 23.1877C20.3308 24.9228 19.8909 26.711 19.3808 28.4757C19.3238 28.6726 19.2786 28.8744 19.2042 29.0645C19.1711 29.1491 19.0792 29.211 19.0142 29.2831C18.9599 29.2022 18.8665 29.126 18.8573 29.0406C18.7863 28.3577 18.7434 27.6747 18.6674 26.9952C18.1774 22.5252 18.5124 18.0409 18.3886 13.5638C18.3506 12.2384 18.5565 11 19.0556 9.76957C19.6653 8.26822 20.1679 6.72322 20.7243 5.20024C21.0487 4.31202 21.9289 3.92881 22.7338 4.31126C23.3503 4.60379 23.7089 5.29775 23.4935 5.94845C23.1003 7.14514 22.6578 8.32589 22.232 9.51157C21.7762 10.7803 21.3135 12.0468 20.8546 13.3145C20.825 13.4052 20.7992 13.4985 20.76 13.6218Z" fill="#141A32"/>
<path d="M20.8022 2.30452C20.7525 2.4965 20.7145 2.70898 20.6427 2.90893C19.943 4.85661 19.2389 6.80176 18.5303 8.74439C18.4923 8.85214 18.3932 8.93941 18.3229 9.03616C18.2348 8.95382 18.133 8.88439 18.0619 8.78726C17.8777 8.53533 17.7269 8.25607 17.5275 8.01818C17.2213 7.65128 16.7955 7.46878 16.3378 7.37317C16.0814 7.32005 16.0141 7.20698 16.1034 6.96264C16.7282 5.24843 17.3417 3.52966 17.9719 1.81735C18.2032 1.18903 18.7423 0.830859 19.3671 0.845656C19.6626 0.850731 19.9492 0.94761 20.187 1.12283C20.4249 1.29806 20.6022 1.54292 20.6943 1.82342C20.743 1.97139 20.7631 2.12733 20.8022 2.30452Z" fill="#141A32"/>
<path d="M16.8031 3.36044C16.7628 3.51221 16.7237 3.72544 16.6511 3.92539C16.1881 5.22186 15.7178 6.51568 15.2498 7.81026C15.2331 7.85617 15.2263 7.91156 15.1959 7.94533C15.1374 8.00214 15.0749 8.05475 15.009 8.10279C14.9566 8.03943 14.8723 7.98251 14.8571 7.91118C14.772 7.51026 14.696 7.10707 14.6292 6.7016C14.5122 5.9845 14.1312 5.45862 13.4862 5.13194C13.2666 5.02039 13.2203 4.89443 13.3099 4.6645C13.5606 4.01949 13.7707 3.35664 14.0343 2.71619C14.152 2.43357 14.359 2.19713 14.6237 2.04288C14.8884 1.88863 15.1963 1.82502 15.5006 1.86174C15.8096 1.89592 16.0993 2.02887 16.3266 2.2408C16.554 2.45274 16.7067 2.73232 16.7621 3.03793C16.7814 3.1233 16.7856 3.21322 16.8031 3.36044Z" fill="#141A32"/>
</svg>
