<svg width="26" height="26" viewBox="0 0 26 26" fill="none" xmlns="http://www.w3.org/2000/svg">
<path fill-rule="evenodd" clip-rule="evenodd" d="M7.59089 5.0587C7.84713 5.06144 8.10031 5.11479 8.33586 5.2157C8.57142 5.31661 8.78471 5.46307 8.96348 5.64668C9.14225 5.83029 9.28297 6.04742 9.37755 6.28559C9.47214 6.52377 9.51872 6.77829 9.51463 7.03452C9.50114 8.09031 8.58669 9.00281 7.54525 8.99804C6.45974 8.99487 5.56991 8.06014 5.59293 6.95236C5.61714 5.86443 6.48117 5.04639 7.59089 5.0587ZM1.35609 5.86125C1.90102 5.94064 1.96453 6.26769 1.98318 6.67968C2.03875 7.89185 2.10225 9.10362 2.13281 10.3174C2.15186 10.9719 2.37293 11.3152 3.06868 11.5478C6.48871 12.6846 8.82364 14.9446 9.84088 18.4568C10.0151 19.0586 10.1096 19.6825 10.2378 20.2862C13.2938 20.7522 16.2039 21.8913 19.3878 21.5563C19.0234 21.0264 18.6591 20.4938 18.1697 20.1374C17.2239 19.4503 16.1963 18.8795 15.2239 18.2282C13.3502 16.9748 13.1105 15.9261 14.2619 13.8947C13.9297 13.6768 13.6423 13.4407 13.3181 13.2918C12.7656 13.0378 12.631 12.6393 12.6862 12.065C12.8628 10.267 12.9839 8.46301 13.174 6.66698C13.197 6.43796 13.4867 6.23038 13.6689 6.02518C13.8674 5.80172 14.2571 5.60088 14.2643 5.38139C14.3143 3.82748 14.2897 2.27079 14.2897 0.723633H0.795279C0.795279 2.24896 0.768687 3.71595 0.818696 5.18015C0.827427 5.42306 1.13939 5.8291 1.35609 5.86125Z" fill="#141A32"/>
<path fill-rule="evenodd" clip-rule="evenodd" d="M25.7571 22.4712C24.7252 22.622 23.7647 22.7887 22.7979 22.8987C20.4891 23.1638 18.1717 23.3269 15.8697 22.8816C12.1619 22.1672 8.49144 21.2221 4.68999 21.1515C3.20879 21.1237 1.72838 21.1467 0.228516 21.1467V25.2484H1.0477C2.90596 25.2484 4.7662 25.1884 6.62128 25.273C7.60121 25.3182 8.25529 25.071 8.60575 24.1339C8.78236 23.6655 9.12964 23.4678 9.63052 23.5623C11.6114 23.9342 13.6221 24.1993 15.5724 24.701C18.8535 25.5445 22.0334 25.3595 25.1923 24.195C25.6388 24.0307 25.8174 23.8155 25.7623 23.3523C25.7273 23.067 25.7559 22.7752 25.7571 22.4712Z" fill="#141A32"/>
<path fill-rule="evenodd" clip-rule="evenodd" d="M1.99667 12.7326C1.21599 14.9485 0.831 17.2177 0.995314 19.7393C2.33046 19.7393 3.59814 19.7059 4.86383 19.7484C6.12238 19.7905 7.38014 19.9071 8.69187 19.9968C8.17829 16.1127 5.34288 13.5197 1.99667 12.7326Z" fill="#141A32"/>
<path fill-rule="evenodd" clip-rule="evenodd" d="M15.8149 16.9021C16.5976 17.4403 17.4319 17.9055 18.236 18.416C19.3691 19.1352 20.3304 20.0103 20.8344 21.3086C20.8951 21.4599 21.1952 21.6262 21.3659 21.6087C22.4105 21.5055 23.4503 21.363 24.4882 21.2043C24.6926 21.161 24.8717 21.0389 24.9867 20.8645C25.8226 19.4285 24.9601 17.6543 23.3198 17.4003C22.6228 17.2915 21.9215 17.1891 21.2198 17.0994C19.5584 16.8851 17.9653 16.4965 16.6278 15.3974C16.2959 15.126 15.8975 14.9335 15.4891 14.6794C14.7679 15.8063 14.8235 16.2202 15.8149 16.9021Z" fill="#141A32"/>
</svg>
