<svg width="25" height="24" viewBox="0 0 25 24" fill="none" xmlns="http://www.w3.org/2000/svg">
<path d="M5.25 22C4.7 22 4.22917 21.8042 3.8375 21.4125C3.44583 21.0208 3.25 20.55 3.25 20V8C3.25 7.45 3.44583 6.97917 3.8375 6.5875C4.22917 6.19583 4.7 6 5.25 6H7.25C7.25 4.61667 7.7375 3.4375 8.7125 2.4625C9.6875 1.4875 10.8667 1 12.25 1C13.6333 1 14.8125 1.4875 15.7875 2.4625C16.7625 3.4375 17.25 4.61667 17.25 6H19.25C19.8 6 20.2708 6.19583 20.6625 6.5875C21.0542 6.97917 21.25 7.45 21.25 8V20C21.25 20.55 21.0542 21.0208 20.6625 21.4125C20.2708 21.8042 19.8 22 19.25 22H5.25ZM5.25 20H19.25V8H5.25V20ZM9.25 6H15.25C15.25 5.16667 14.9583 4.45833 14.375 3.875C13.7917 3.29167 13.0833 3 12.25 3C11.4167 3 10.7083 3.29167 10.125 3.875C9.54167 4.45833 9.25 5.16667 9.25 6ZM12.225 14C13.4583 14 14.575 13.5917 15.575 12.775C16.575 11.9583 17.0667 11.0417 17.05 10.025C17.05 9.74167 16.9583 9.5 16.775 9.3C16.5917 9.1 16.3583 9 16.075 9C15.8417 9 15.6333 9.075 15.45 9.225C15.2667 9.375 15.1333 9.6 15.05 9.9C14.8667 10.5333 14.5083 11.0417 13.975 11.425C13.4417 11.8083 12.8583 12 12.225 12C11.5917 12 11.0042 11.8083 10.4625 11.425C9.92083 11.0417 9.56667 10.5333 9.4 9.9C9.31667 9.58333 9.19167 9.35417 9.025 9.2125C8.85833 9.07083 8.65833 9 8.425 9C8.14167 9 7.90417 9.1 7.7125 9.3C7.52083 9.5 7.425 9.74167 7.425 10.025C7.425 11.0417 7.91667 11.9583 8.9 12.775C9.88333 13.5917 10.9917 14 12.225 14Z" fill="#141A32"/>
</svg>
