<svg width="26" height="30" viewBox="0 0 26 30" fill="none" xmlns="http://www.w3.org/2000/svg">
<path d="M7.28434 2.59092V3.43846C7.28434 4.2307 7.28434 5.02281 7.28434 5.81479C7.28434 6.18333 7.49682 6.43005 7.80741 6.42654C8.11799 6.42303 8.31987 6.17942 8.31987 5.82065C8.31987 4.53781 8.31987 3.25498 8.31987 1.97214C8.31987 0.800958 9.10011 0.00182151 10.2398 0.00104072H12.4821V0.20834C12.4821 2.42266 12.4821 4.63697 12.4821 6.85129C12.479 6.92372 12.4828 6.99629 12.4934 7.06796C12.5179 7.19522 12.5866 7.30891 12.6866 7.38767C12.7866 7.46642 12.9111 7.50483 13.0367 7.49567C13.1622 7.48652 13.2802 7.43043 13.3685 7.33795C13.4568 7.24546 13.5092 7.12294 13.5161 6.99339C13.5195 6.94342 13.5161 6.89306 13.5161 6.8427V0.0108006C13.5611 0.00728703 13.5918 0.00260263 13.6229 0.00260263C14.3702 0.00260263 15.1175 -0.00325329 15.8644 0.00260263C16.1033 0.00239246 16.3398 0.0508882 16.5604 0.145298C16.7811 0.239707 16.9814 0.378165 17.1499 0.5527C17.3184 0.727234 17.4517 0.934398 17.5422 1.16226C17.6327 1.39013 17.6785 1.63419 17.6771 1.8804C17.6832 3.20227 17.6771 4.52415 17.6794 5.84642C17.6794 6.26531 18.0366 6.53429 18.3903 6.38789C18.5971 6.3024 18.7146 6.1072 18.7146 5.83939C18.7146 4.82436 18.7146 3.80934 18.7146 2.79431V2.59365C18.7759 2.6241 18.8195 2.64206 18.86 2.66626C21.937 4.49539 23.8784 7.1921 24.6842 10.7564C24.8512 11.5021 24.9251 12.2622 24.9569 13.0269C24.9644 13.1172 25.0008 13.2023 25.0603 13.269C25.3016 13.5325 25.5527 13.787 25.8046 14.0404C25.8679 14.1011 25.9178 14.1751 25.9511 14.2574C25.9843 14.3397 26.0001 14.4284 25.9973 14.5175C25.9936 15.1925 25.9973 15.8674 25.9973 16.542C25.9973 16.8739 25.8599 17.0757 25.5428 17.1382C24.6509 17.3139 23.7596 17.4989 22.8612 17.632C21.1246 17.8889 19.3747 18.0205 17.623 18.1048C15.3125 18.2165 13.0012 18.2436 10.689 18.1864C8.84824 18.1434 7.01049 18.0501 5.1773 17.8741C3.6365 17.7246 2.10101 17.5325 0.589757 17.1753C0.463078 17.1493 0.340894 17.1039 0.227283 17.0406C0.0735069 16.9473 0.00267905 16.7876 0.00267905 16.6022C0.00267905 15.8881 -0.00678986 15.1741 0.00987558 14.4605C0.0132844 14.3258 0.0924444 14.1692 0.182968 14.0654C0.429541 13.7808 0.702627 13.5247 0.956396 13.2514C1.00573 13.1964 1.03562 13.1258 1.04124 13.0511C1.14161 10.1763 2.06957 7.62661 3.87247 5.42479C4.80182 4.29338 5.92605 3.34877 7.18851 2.63854C7.21237 2.62527 7.23624 2.61512 7.28434 2.59092ZM5.00913 12.8583C4.8902 12.8583 4.77051 12.852 4.65196 12.8606C4.56512 12.8658 4.48097 12.8935 4.40738 12.9413C4.33379 12.9891 4.27317 13.0554 4.2312 13.1339C4.18922 13.2124 4.16727 13.3006 4.1674 13.3903C4.16752 13.4799 4.18972 13.5681 4.23191 13.6465C4.35236 13.8655 4.54666 13.9272 4.78111 13.9272C10.1479 13.9248 15.5143 13.9248 20.8803 13.9272C21.0318 13.9272 21.1833 13.9323 21.3348 13.9272C21.4683 13.9219 21.5946 13.8635 21.6873 13.7643C21.7799 13.6651 21.8317 13.5328 21.8317 13.3951C21.8317 13.2574 21.7799 13.125 21.6873 13.0258C21.5946 12.9266 21.4683 12.8682 21.3348 12.863C21.2697 12.8595 21.2049 12.863 21.1398 12.863L5.00913 12.8583Z" fill="#141A32"/>
<path d="M1.59233 26.2445C1.23895 26.2445 0.90337 26.2445 0.569683 26.2445C0.218572 26.2445 0.0053302 26.0232 0.00495144 25.6589C0.00495144 24.6158 0.00495144 23.5727 0.00495144 22.5295C0.00495144 22.1782 0.219709 21.9592 0.565138 21.9572C0.868146 21.9572 1.17115 21.9541 1.47416 21.9572C1.56772 21.9572 1.61203 21.9404 1.63589 21.8295C1.96466 20.307 3.20774 19.2787 4.71862 19.2783C10.2417 19.2783 15.7649 19.2783 21.2882 19.2783C22.79 19.2783 24.0403 20.309 24.366 21.8159C24.3899 21.926 24.4244 21.9611 24.5319 21.9584C24.8349 21.9514 25.1379 21.9545 25.441 21.9584C25.7818 21.9584 25.9981 22.1805 25.9989 22.5338C26.0004 23.5824 26.0004 24.631 25.9989 25.6796C25.9989 26.0228 25.7818 26.2426 25.4478 26.2453C25.1069 26.2476 24.766 26.2453 24.4156 26.2453C24.3819 26.4073 24.3535 26.5643 24.3168 26.7192C24.0986 27.6487 23.5846 28.4761 22.8569 29.0694C22.1292 29.6627 21.2298 29.9878 20.3019 29.9927C19.4789 29.9989 18.6555 29.9782 17.8328 29.9966C15.175 30.0567 13.6721 28.223 13.1282 26.3679C13.091 26.2166 13.0435 26.0681 12.9862 25.9236C12.9703 25.9923 12.9566 26.0618 12.9385 26.1297C12.5483 27.6132 11.7643 28.7879 10.4163 29.5098C9.83619 29.8178 9.19399 29.9811 8.54144 29.9864C7.55061 30.0025 6.55939 30.0056 5.56893 29.9888C3.65317 29.956 1.92261 28.3882 1.62756 26.4385C1.61733 26.3773 1.60559 26.3175 1.59233 26.2445ZM13.0112 21.4251C10.2551 21.4251 7.49897 21.4251 4.74286 21.4251C4.09897 21.4251 3.64786 21.8768 3.64446 22.528C3.6418 23.5988 3.63802 24.6697 3.64446 25.7405C3.65241 26.882 4.56522 27.8307 5.67196 27.8444C6.58098 27.8553 7.4919 27.8615 8.40092 27.8373C8.71411 27.8286 9.02362 27.7654 9.31639 27.6503C10.1731 27.3087 10.6273 26.5963 10.8799 25.723C10.9367 25.5278 10.9451 25.3158 11 25.119C11.1319 24.6427 11.4196 24.2281 11.8143 23.9454C12.2089 23.6627 12.6862 23.5294 13.1653 23.568C14.1463 23.6437 14.9277 24.4268 15.0682 25.4727C15.255 26.859 16.3337 27.8397 17.6866 27.8467C18.5312 27.851 19.3762 27.8467 20.2209 27.8467C21.4462 27.8467 22.3518 26.9098 22.3529 25.6445C22.3529 24.6295 22.3529 23.6144 22.3529 22.5994C22.3529 21.8612 21.928 21.4251 21.211 21.4251H13.0112Z" fill="#141A32"/>
</svg>
