<svg width="18" height="15" viewBox="0 0 18 15" fill="none" xmlns="http://www.w3.org/2000/svg">
<path d="M4.86987 8.88108L1.07297 7.64397C1.07297 7.64397 0.619202 7.45987 0.765317 7.0424C0.795395 6.95631 0.856071 6.88306 1.03758 6.75717C1.87887 6.17077 16.6092 0.876289 16.6092 0.876289C16.6092 0.876289 17.0251 0.736139 17.2704 0.829356C17.3311 0.848141 17.3857 0.882708 17.4286 0.92952C17.4716 0.976332 17.5013 1.03371 17.5148 1.09579C17.5413 1.20542 17.5524 1.31823 17.5477 1.43093C17.5466 1.52842 17.5348 1.61879 17.5258 1.7605C17.4361 3.20803 14.7513 14.0114 14.7513 14.0114C14.7513 14.0114 14.5907 14.6436 14.0152 14.6652C13.8737 14.6698 13.7328 14.6459 13.6009 14.5948C13.4689 14.5437 13.3486 14.4666 13.247 14.3681C12.1176 13.3966 8.21417 10.7733 7.35161 10.1964C7.33216 10.1831 7.31577 10.1658 7.30356 10.1457C7.29135 10.1256 7.2836 10.1031 7.28083 10.0797C7.26877 10.0189 7.33489 9.94355 7.33489 9.94355C7.33489 9.94355 14.1319 3.90191 14.3127 3.26766C14.3267 3.21853 14.2738 3.19428 14.2028 3.21581C13.7513 3.38189 5.92548 8.32398 5.06175 8.86941C4.99958 8.88822 4.93387 8.89221 4.86987 8.88108Z" fill="white"/>
</svg>
