<svg width="16" height="10" viewBox="0 0 16 10" fill="none" xmlns="http://www.w3.org/2000/svg">
<path d="M8.68044 10C3.47416 10 0.504592 6.24625 0.380859 0H2.98875C3.07441 4.58458 4.99702 6.52653 6.51988 6.92693V0H8.97549V3.95395C10.4793 3.78378 12.0593 1.98198 12.5923 0H15.0479C14.847 1.02791 14.4467 2.00118 13.8718 2.85893C13.297 3.71668 12.5601 4.44045 11.7071 4.98498C12.6592 5.48254 13.5002 6.18678 14.1745 7.05125C14.8488 7.91571 15.3411 8.92073 15.619 10H12.9159C12.6664 9.06258 12.1595 8.22343 11.4585 7.58773C10.7576 6.95203 9.89381 6.54805 8.97549 6.42643V10H8.68044Z" fill="white"/>
</svg>
