<svg width="24" height="24" viewBox="0 0 24 24" fill="none" xmlns="http://www.w3.org/2000/svg">
<g clip-path="url(#clip0_6707_235)">
<path fill-rule="evenodd" clip-rule="evenodd" d="M20.3109 3.72481C18.1055 1.45454 15.0569 0.222107 11.9434 0.222107C5.32714 0.222107 0.00822426 5.60589 0.0730892 12.1572C0.0730892 14.2329 0.656873 16.2437 1.62985 18.0599L-0.0566406 24.2221L6.23525 22.6005C7.9866 23.5735 9.93255 24.0275 11.8785 24.0275C18.4298 24.0275 23.7488 18.6437 23.7488 12.0924C23.7488 8.914 22.5163 5.93021 20.3109 3.72481ZM17.6515 14.8167L16.938 14.4923C16.938 14.4923 15.9001 14.0383 15.2515 13.714C15.219 13.714 15.1866 13.6977 15.1542 13.6815C15.1217 13.6653 15.0893 13.6491 15.0569 13.6491C14.8623 13.6491 14.7325 13.714 14.6028 13.7788C14.6028 13.7788 14.538 13.8437 13.6298 14.8815C13.565 15.0113 13.4353 15.0761 13.3055 15.0761H13.2407C13.1758 15.0761 13.0461 15.0113 12.9812 14.9464L12.6569 14.8167C11.9434 14.4923 11.2947 14.1032 10.7758 13.5842C10.7109 13.5194 10.6298 13.4545 10.5488 13.3896C10.4677 13.3248 10.3866 13.2599 10.3217 13.195C9.86768 12.741 9.41363 12.2221 9.08931 11.6383L9.02444 11.5086C8.98435 11.4685 8.96904 11.4284 8.94788 11.373C8.9348 11.3387 8.91949 11.2987 8.89471 11.2491C8.89471 11.1194 8.89471 10.9896 8.95958 10.9248C8.95958 10.9248 9.21904 10.6005 9.41363 10.4059C9.4785 10.341 9.52714 10.2599 9.57579 10.1788C9.62444 10.0978 9.67309 10.0167 9.73796 9.95181C9.86768 9.75721 9.93255 9.49775 9.86768 9.30316C9.80282 8.97883 9.02444 7.22748 8.82985 6.83829C8.70012 6.6437 8.57039 6.57883 8.37579 6.51397H7.66228C7.59741 6.51397 7.53255 6.53018 7.46769 6.5464C7.40282 6.56262 7.33795 6.57883 7.27309 6.57883L7.20823 6.6437C7.14336 6.67613 7.0785 6.72478 7.01363 6.77343C6.94877 6.82208 6.8839 6.87072 6.81904 6.90316C6.75417 6.96802 6.70552 7.03289 6.65687 7.09775C6.60823 7.16262 6.55958 7.22748 6.49471 7.29235C6.04066 7.87613 5.7812 8.58964 5.7812 9.30316C5.7812 9.82207 5.91093 10.341 6.10552 10.795L6.17039 10.9896C6.75417 12.2221 7.53255 13.3248 8.57039 14.2978L8.82985 14.5572C8.89731 14.6247 8.96477 14.6843 9.02953 14.7416C9.15157 14.8496 9.26401 14.949 9.34877 15.0761C10.7109 16.2437 12.2677 17.0869 14.019 17.541C14.1163 17.5734 14.2298 17.5896 14.3434 17.6059C14.4569 17.6221 14.5704 17.6383 14.6677 17.6707H15.3163C15.6407 17.6707 16.0298 17.541 16.2893 17.4113C16.3746 17.3544 16.4475 17.3224 16.5133 17.2936C16.5977 17.2566 16.6705 17.2247 16.7434 17.1518L16.8731 17.0221C16.938 16.9572 17.0028 16.9086 17.0677 16.8599C17.1326 16.8113 17.1974 16.7626 17.2623 16.6978C17.392 16.568 17.5217 16.4383 17.5866 16.3086C17.7163 16.0491 17.7812 15.7248 17.8461 15.4005L17.8461 14.9464C17.8461 14.9464 17.7812 14.8815 17.6515 14.8167Z" fill="#141A32"/>
</g>
<defs>
<clipPath id="clip0_6707_235">
<rect width="24" height="24" fill="white"/>
</clipPath>
</defs>
</svg>
