<svg width="24" height="24" viewBox="0 0 24 24" fill="none" xmlns="http://www.w3.org/2000/svg">
<g clip-path="url(#clip0_6676_1209)">
<path fill-rule="evenodd" clip-rule="evenodd" d="M20.3109 3.72487C18.1055 1.4546 15.0569 0.222168 11.9434 0.222168C5.32714 0.222168 0.00822426 5.60595 0.0730892 12.1573C0.0730892 14.233 0.656873 16.2438 1.62985 18.06L-0.0566406 24.2222L6.23525 22.6005C7.9866 23.5735 9.93255 24.0276 11.8785 24.0276C18.4298 24.0276 23.7488 18.6438 23.7488 12.0924C23.7488 8.91406 22.5163 5.93028 20.3109 3.72487ZM17.6515 14.8167L16.938 14.4924C16.938 14.4924 15.9001 14.0384 15.2515 13.714C15.219 13.714 15.1866 13.6978 15.1542 13.6816C15.1217 13.6654 15.0893 13.6492 15.0569 13.6492C14.8623 13.6492 14.7325 13.714 14.6028 13.7789C14.6028 13.7789 14.538 13.8438 13.6298 14.8816C13.565 15.0113 13.4353 15.0762 13.3055 15.0762H13.2407C13.1758 15.0762 13.0461 15.0113 12.9812 14.9465L12.6569 14.8167C11.9434 14.4924 11.2947 14.1032 10.7758 13.5843C10.7109 13.5194 10.6298 13.4546 10.5488 13.3897C10.4677 13.3248 10.3866 13.26 10.3217 13.1951C9.86768 12.7411 9.41363 12.2221 9.08931 11.6384L9.02444 11.5086C8.98435 11.4685 8.96904 11.4284 8.94788 11.373C8.9348 11.3388 8.91949 11.2987 8.89471 11.2492C8.89471 11.1194 8.89471 10.9897 8.95958 10.9248C8.95958 10.9248 9.21904 10.6005 9.41363 10.4059C9.4785 10.3411 9.52714 10.26 9.57579 10.1789C9.62444 10.0978 9.67309 10.0167 9.73796 9.95187C9.86768 9.75727 9.93255 9.49781 9.86768 9.30322C9.80282 8.97889 9.02444 7.22754 8.82985 6.83835C8.70012 6.64376 8.57039 6.57889 8.37579 6.51403H7.66228C7.59741 6.51403 7.53255 6.53024 7.46769 6.54646C7.40282 6.56268 7.33795 6.57889 7.27309 6.57889L7.20823 6.64376C7.14336 6.67619 7.0785 6.72484 7.01363 6.77349C6.94877 6.82214 6.8839 6.87078 6.81904 6.90322C6.75417 6.96808 6.70552 7.03295 6.65687 7.09781C6.60823 7.16268 6.55958 7.22754 6.49471 7.29241C6.04066 7.87619 5.7812 8.5897 5.7812 9.30322C5.7812 9.82214 5.91093 10.3411 6.10552 10.7951L6.17039 10.9897C6.75417 12.2221 7.53255 13.3248 8.57039 14.2978L8.82985 14.5573C8.89731 14.6247 8.96477 14.6844 9.02953 14.7417C9.15157 14.8496 9.26401 14.9491 9.34877 15.0762C10.7109 16.2438 12.2677 17.087 14.019 17.5411C14.1163 17.5735 14.2298 17.5897 14.3434 17.6059C14.4569 17.6221 14.5704 17.6384 14.6677 17.6708H15.3163C15.6407 17.6708 16.0298 17.5411 16.2893 17.4113C16.3746 17.3544 16.4475 17.3225 16.5133 17.2936C16.5977 17.2567 16.6705 17.2247 16.7434 17.1519L16.8731 17.0221C16.938 16.9573 17.0028 16.9086 17.0677 16.86C17.1326 16.8113 17.1974 16.7627 17.2623 16.6978C17.392 16.5681 17.5217 16.4384 17.5866 16.3086C17.7163 16.0492 17.7812 15.7248 17.8461 15.4005L17.8461 14.9465C17.8461 14.9465 17.7812 14.8816 17.6515 14.8167Z" fill="white"/>
</g>
<defs>
<clipPath id="clip0_6676_1209">
<rect width="24" height="24" fill="white"/>
</clipPath>
</defs>
</svg>
